<svg width="265" height="589" viewBox="0 0 265 589" fill="none" xmlns="http://www.w3.org/2000/svg">
<g filter="url(#filter0_d_3_194)">
<path d="M237.861 12.9849C237.573 11.3532 236.257 10 234.6 10H30.2C28.5431 10 27.2266 11.3532 26.9391 12.9849C26.3306 16.4382 24.6754 19.649 22.1622 22.1622C19.6491 24.6754 16.4382 26.3306 12.9849 26.9391C11.3532 27.2266 10 28.5432 10 30.2L10 558.6C10 560.257 11.3531 561.573 12.9848 561.861C14.2156 562.078 15.422 562.429 16.5822 562.909C18.669 563.774 20.5651 565.041 22.1622 566.638C23.7594 568.235 25.0263 570.131 25.8907 572.218C26.3713 573.378 26.7222 574.584 26.939 575.815C27.2266 577.447 28.5431 578.8 30.2 578.8H234.6C236.257 578.8 237.573 577.447 237.861 575.815C238.469 572.362 240.125 569.151 242.638 566.638C245.151 564.125 248.362 562.469 251.815 561.861C253.447 561.573 254.8 560.257 254.8 558.6L254.8 30.2C254.8 28.5431 253.447 27.2266 251.815 26.9391C248.362 26.3306 245.151 24.6754 242.638 22.1622C240.125 19.649 238.469 16.4382 237.861 12.9849Z" fill="white"/>
</g>
<defs>
<filter id="filter0_d_3_194" x="0" y="0" width="264.8" height="588.8" filterUnits="userSpaceOnUse" color-interpolation-filters="sRGB">
<feFlood flood-opacity="0" result="BackgroundImageFix"/>
<feColorMatrix in="SourceAlpha" type="matrix" values="0 0 0 0 0 0 0 0 0 0 0 0 0 0 0 0 0 0 127 0" result="hardAlpha"/>
<feOffset/>
<feGaussianBlur stdDeviation="5"/>
<feComposite in2="hardAlpha" operator="out"/>
<feColorMatrix type="matrix" values="0 0 0 0 0 0 0 0 0 0 0 0 0 0 0 0 0 0 0.25 0"/>
<feBlend mode="normal" in2="BackgroundImageFix" result="effect1_dropShadow_3_194"/>
<feBlend mode="normal" in="SourceGraphic" in2="effect1_dropShadow_3_194" result="shape"/>
</filter>
</defs>
</svg>
