<svg width="18" height="18" viewBox="0 0 18 18" fill="none" xmlns="http://www.w3.org/2000/svg">
<path d="M14.3006 1.54218H11.6881C11.5162 1.54218 11.373 1.48488 11.2584 1.3703C11.1438 1.25572 11.0865 1.11249 11.0865 0.940613C11.0865 0.780196 11.1438 0.63983 11.2584 0.519518C11.373 0.399205 11.5162 0.33905 11.6881 0.33905H14.3006C15.1829 0.33905 15.9391 0.654154 16.5693 1.28436C17.1995 1.91457 17.5146 2.67655 17.5146 3.5703V6.5953C17.5146 6.76717 17.4545 6.9104 17.3342 7.02499C17.2139 7.13957 17.0735 7.19686 16.9131 7.19686C16.7412 7.19686 16.598 7.13957 16.4834 7.02499C16.3688 6.9104 16.3115 6.76717 16.3115 6.5953V3.5703C16.3115 3.00884 16.1139 2.53046 15.7186 2.13514C15.3232 1.73983 14.8506 1.54218 14.3006 1.54218ZM16.3115 13.9687V11.4594C16.3115 11.2875 16.3688 11.1443 16.4834 11.0297C16.598 10.9151 16.7412 10.8578 16.9131 10.8578C17.0735 10.8578 17.2139 10.9151 17.3342 11.0297C17.4545 11.1443 17.5146 11.2875 17.5146 11.4594V13.9687C17.5146 14.851 17.1995 15.6073 16.5693 16.2375C15.9391 16.8677 15.1829 17.1828 14.3006 17.1828H11.6537C11.4818 17.1828 11.3386 17.1255 11.224 17.0109C11.1094 16.8963 11.0521 16.7531 11.0521 16.5812C11.0521 16.4208 11.1094 16.2805 11.224 16.1601C11.3386 16.0398 11.4818 15.9797 11.6537 15.9797H14.3006C14.8506 15.9797 15.3232 15.782 15.7186 15.3867C16.1139 14.9914 16.3115 14.5187 16.3115 13.9687ZM1.87402 6.37186V3.5703C1.87402 3.00884 2.07168 2.53332 2.46699 2.14374C2.8623 1.75415 3.33496 1.55936 3.88496 1.55936H6.46309C6.6235 1.55936 6.76387 1.49921 6.88418 1.37889C7.00449 1.25858 7.06465 1.11249 7.06465 0.940613C7.06465 0.780196 7.00449 0.63983 6.88418 0.519518C6.76387 0.399205 6.6235 0.33905 6.46309 0.33905H3.88496C3.00267 0.33905 2.24642 0.654154 1.61621 1.28436C0.986003 1.91457 0.670898 2.67655 0.670898 3.5703V6.37186C0.670898 6.54374 0.731055 6.68697 0.851367 6.80155C0.97168 6.91613 1.11204 6.97342 1.27246 6.97342C1.44434 6.97342 1.58757 6.91613 1.70215 6.80155C1.81673 6.68697 1.87402 6.54374 1.87402 6.37186ZM3.88496 15.9797H6.46309C6.6235 15.9797 6.76387 16.0398 6.88418 16.1601C7.00449 16.2805 7.06465 16.4208 7.06465 16.5812C7.06465 16.7531 7.00449 16.8963 6.88418 17.0109C6.76387 17.1255 6.6235 17.1828 6.46309 17.1828H3.88496C3.00267 17.1828 2.24642 16.8677 1.61621 16.2375C0.986003 15.6073 0.670898 14.851 0.670898 13.9687V11.425C0.670898 11.2531 0.731055 11.1099 0.851367 10.9953C0.97168 10.8807 1.11204 10.8234 1.27246 10.8234C1.44434 10.8234 1.58757 10.8807 1.70215 10.9953C1.81673 11.1099 1.87402 11.2531 1.87402 11.425V13.9687C1.87402 14.5187 2.07168 14.9914 2.46699 15.3867C2.8623 15.782 3.33496 15.9797 3.88496 15.9797ZM13.149 12.2672V5.27186C13.149 5.09999 13.0917 4.95676 12.9771 4.84218C12.8626 4.72759 12.7193 4.6703 12.5475 4.6703C12.387 4.6703 12.2467 4.72759 12.1264 4.84218C12.0061 4.95676 11.9459 5.09999 11.9459 5.27186V12.2672C11.9459 12.4391 12.0061 12.5823 12.1264 12.6969C12.2467 12.8114 12.387 12.8687 12.5475 12.8687C12.7193 12.8687 12.8626 12.8114 12.9771 12.6969C13.0917 12.5823 13.149 12.4391 13.149 12.2672ZM6.23965 5.27186V12.2672C6.23965 12.4391 6.17949 12.5823 6.05918 12.6969C5.93887 12.8114 5.7985 12.8687 5.63809 12.8687C5.46621 12.8687 5.32298 12.8114 5.2084 12.6969C5.09382 12.5823 5.03652 12.4391 5.03652 12.2672V5.27186C5.03652 5.09999 5.09382 4.95676 5.2084 4.84218C5.32298 4.72759 5.46621 4.6703 5.63809 4.6703C5.7985 4.6703 5.93887 4.72759 6.05918 4.84218C6.17949 4.95676 6.23965 5.09999 6.23965 5.27186ZM10.8287 12.2672V5.27186C10.8287 5.09999 10.7714 4.95676 10.6568 4.84218C10.5423 4.72759 10.399 4.6703 10.2271 4.6703C10.0667 4.6703 9.92637 4.72759 9.80606 4.84218C9.68574 4.95676 9.62559 5.09999 9.62559 5.27186V12.2672C9.62559 12.4391 9.68574 12.5823 9.80606 12.6969C9.92637 12.8114 10.0667 12.8687 10.2271 12.8687C10.399 12.8687 10.5423 12.8114 10.6568 12.6969C10.7714 12.5823 10.8287 12.4391 10.8287 12.2672ZM8.5084 5.27186V12.2672C8.5084 12.4391 8.45111 12.5823 8.33652 12.6969C8.22194 12.8114 8.07871 12.8687 7.90684 12.8687C7.74642 12.8687 7.60606 12.8114 7.48574 12.6969C7.36543 12.5823 7.30527 12.4391 7.30527 12.2672V5.27186C7.30527 5.09999 7.36543 4.95676 7.48574 4.84218C7.60606 4.72759 7.74642 4.6703 7.90684 4.6703C8.07871 4.6703 8.22194 4.72759 8.33652 4.84218C8.45111 4.95676 8.5084 5.09999 8.5084 5.27186Z" fill="#535D6E"/>
</svg>
