<svg xmlns="http://www.w3.org/2000/svg" viewBox="0 0 500 500"><g id="freepik--background-complete--inject-2"><path d="M213.93,45.48c.6-4.38-5.58-8-10.22-8.36-2.22-.17-4.52.16-6.62-.57-4.55-1.58-6.36-7.46-10.8-9.33-3.32-1.4-7.14-.15-10.35,1.47s-6.4,3.65-10,3.88c-3.13.2-6.52-1-9.26.57-2,1.14-3.1,3.49-5,4.87s-4.23,1.64-6.51,1.77-4.64.14-6.72,1.09-3.79,3.15-3.36,5.39Z" style="fill:#f5f5f5"></path><path d="M455.33,109.37c.52-3.81-4.86-7-8.9-7.27-1.92-.16-3.93.14-5.75-.5-4-1.38-5.54-6.49-9.4-8.12-2.88-1.21-6.21-.13-9,1.28s-5.57,3.18-8.69,3.38c-2.72.17-5.67-.84-8,.49-1.78,1-2.7,3-4.34,4.24a10.34,10.34,0,0,1-5.66,1.54,15.76,15.76,0,0,0-5.85,1c-1.8.83-3.3,2.74-2.92,4.69Z" style="fill:#ebebeb"></path><path d="M129.17,105.27c.77-5.57-7.1-10.16-13-10.63-2.81-.23-5.74.2-8.41-.73C102,91.89,99.65,84.42,94,82c-4.22-1.78-9.08-.2-13.17,1.86s-8.14,4.65-12.71,4.95c-4,.25-8.29-1.23-11.77.72C53.77,91,52.41,94,50,95.76S44.63,97.85,41.73,98s-5.9.19-8.54,1.4-4.82,4-4.28,6.85Z" style="fill:#ebebeb"></path><rect x="297.12" y="47.08" width="81.64" height="345.24" transform="translate(675.88 439.4) rotate(180)" style="fill:#ebebeb"></rect><rect x="338.73" y="71.28" width="24.81" height="47.82" transform="translate(702.28 190.38) rotate(180)" style="fill:#fff"></rect><path d="M350.44,119.1c.18,0,.33-10.71.33-23.91s-.15-23.91-.33-23.91-.33,10.7-.33,23.91S350.26,119.1,350.44,119.1Z" style="fill:#e0e0e0"></path><path d="M338.73,87.89c0,.19,5.56.34,12.41.34s12.41-.15,12.41-.34-5.56-.33-12.41-.33S338.73,87.71,338.73,87.89Z" style="fill:#e0e0e0"></path><path d="M338.6,105c0,.19,5.6.34,12.51.34s12.51-.15,12.51-.34-5.6-.33-12.51-.33S338.6,104.81,338.6,105Z" style="fill:#e0e0e0"></path><rect x="338.73" y="133.74" width="24.81" height="47.82" transform="translate(702.28 315.29) rotate(180)" style="fill:#fff"></rect><path d="M350.44,181.56c.18,0,.33-10.71.33-23.91s-.15-23.91-.33-23.91-.33,10.7-.33,23.91S350.26,181.56,350.44,181.56Z" style="fill:#e0e0e0"></path><path d="M338.73,150.35c0,.18,5.56.33,12.41.33s12.41-.15,12.41-.33S358,150,351.14,150,338.73,150.17,338.73,150.35Z" style="fill:#e0e0e0"></path><path d="M338.6,167.45c0,.19,5.6.33,12.51.33s12.51-.14,12.51-.33-5.6-.33-12.51-.33S338.6,167.27,338.6,167.45Z" style="fill:#e0e0e0"></path><rect x="338.73" y="196.2" width="24.81" height="47.82" transform="translate(702.28 440.21) rotate(180)" style="fill:#fff"></rect><path d="M350.44,244c.18,0,.33-10.7.33-23.9s-.15-23.91-.33-23.91-.33,10.7-.33,23.91S350.26,244,350.44,244Z" style="fill:#e0e0e0"></path><path d="M338.73,212.81c0,.18,5.56.33,12.41.33s12.41-.15,12.41-.33-5.56-.33-12.41-.33S338.73,212.63,338.73,212.81Z" style="fill:#e0e0e0"></path><path d="M338.6,229.91c0,.18,5.6.33,12.51.33s12.51-.15,12.51-.33-5.6-.33-12.51-.33S338.6,229.73,338.6,229.91Z" style="fill:#e0e0e0"></path><rect x="338.73" y="258.66" width="24.81" height="47.82" transform="translate(702.28 565.13) rotate(180)" style="fill:#fff"></rect><path d="M350.44,306.47c.18,0,.33-10.7.33-23.91s-.15-23.9-.33-23.9-.33,10.7-.33,23.9S350.26,306.47,350.44,306.47Z" style="fill:#e0e0e0"></path><path d="M338.73,275.27c0,.18,5.56.33,12.41.33s12.41-.15,12.41-.33-5.56-.33-12.41-.33S338.73,275.08,338.73,275.27Z" style="fill:#e0e0e0"></path><path d="M338.6,292.37c0,.18,5.6.33,12.51.33s12.51-.15,12.51-.33S358,292,351.11,292,338.6,292.19,338.6,292.37Z" style="fill:#e0e0e0"></path><rect x="262.4" y="47.08" width="59.48" height="345.24" transform="translate(584.29 439.4) rotate(180)" style="fill:#e0e0e0"></rect><rect x="278.6" y="71.28" width="24.81" height="47.82" transform="translate(582.02 190.38) rotate(180)" style="fill:#fff"></rect><path d="M290.31,119.1c.18,0,.33-10.71.33-23.91s-.15-23.91-.33-23.91S290,82,290,95.19,290.13,119.1,290.31,119.1Z" style="fill:#e0e0e0"></path><path d="M278.6,87.89c0,.19,5.56.34,12.41.34s12.4-.15,12.4-.34-5.55-.33-12.4-.33S278.6,87.71,278.6,87.89Z" style="fill:#e0e0e0"></path><path d="M278.47,105c0,.19,5.6.34,12.51.34s12.51-.15,12.51-.34-5.6-.33-12.51-.33S278.47,104.81,278.47,105Z" style="fill:#e0e0e0"></path><rect x="278.6" y="134.25" width="24.81" height="47.82" transform="translate(582.02 316.32) rotate(180)" style="fill:#fff"></rect><path d="M290.31,182.07c.18,0,.33-10.71.33-23.91s-.15-23.91-.33-23.91S290,145,290,158.16,290.13,182.07,290.31,182.07Z" style="fill:#e0e0e0"></path><path d="M278.6,150.86c0,.19,5.56.34,12.41.34s12.4-.15,12.4-.34-5.55-.33-12.4-.33S278.6,150.68,278.6,150.86Z" style="fill:#e0e0e0"></path><path d="M278.47,168c0,.19,5.6.34,12.51.34s12.51-.15,12.51-.34-5.6-.33-12.51-.33S278.47,167.78,278.47,168Z" style="fill:#e0e0e0"></path><rect x="278.6" y="197.22" width="24.81" height="47.82" transform="translate(582.02 442.26) rotate(180)" style="fill:#fff"></rect><path d="M290.31,245c.18,0,.33-10.71.33-23.91s-.15-23.91-.33-23.91-.33,10.7-.33,23.91S290.13,245,290.31,245Z" style="fill:#e0e0e0"></path><path d="M278.6,213.83c0,.19,5.56.34,12.41.34s12.4-.15,12.4-.34-5.55-.33-12.4-.33S278.6,213.65,278.6,213.83Z" style="fill:#e0e0e0"></path><path d="M278.47,230.94c0,.18,5.6.33,12.51.33s12.51-.15,12.51-.33-5.6-.34-12.51-.34S278.47,230.75,278.47,230.94Z" style="fill:#e0e0e0"></path><rect x="278.6" y="260.19" width="24.81" height="47.82" transform="translate(582.02 568.2) rotate(180)" style="fill:#fff"></rect><path d="M290.31,308c.18,0,.33-10.71.33-23.91s-.15-23.91-.33-23.91S290,270.9,290,284.1,290.13,308,290.31,308Z" style="fill:#e0e0e0"></path><path d="M278.6,276.8c0,.19,5.56.34,12.41.34s12.4-.15,12.4-.34-5.55-.33-12.4-.33S278.6,276.62,278.6,276.8Z" style="fill:#e0e0e0"></path><path d="M278.47,293.91c0,.18,5.6.33,12.51.33s12.51-.15,12.51-.33-5.6-.34-12.51-.34S278.47,293.72,278.47,293.91Z" style="fill:#e0e0e0"></path><rect x="338.73" y="321.11" width="24.81" height="47.82" transform="translate(702.28 690.04) rotate(180)" style="fill:#fff"></rect><path d="M350.44,368.93c.18,0,.33-10.71.33-23.91s-.15-23.91-.33-23.91-.33,10.71-.33,23.91S350.26,368.93,350.44,368.93Z" style="fill:#e0e0e0"></path><path d="M338.73,337.73c0,.18,5.56.33,12.41.33s12.41-.15,12.41-.33-5.56-.34-12.41-.34S338.73,337.54,338.73,337.73Z" style="fill:#e0e0e0"></path><path d="M338.6,354.83c0,.18,5.6.33,12.51.33s12.51-.15,12.51-.33-5.6-.34-12.51-.34S338.6,354.64,338.6,354.83Z" style="fill:#e0e0e0"></path><rect x="278.6" y="323.16" width="24.81" height="47.82" transform="translate(582.02 694.14) rotate(180)" style="fill:#fff"></rect><path d="M290.31,371c.18,0,.33-10.71.33-23.91s-.15-23.91-.33-23.91-.33,10.71-.33,23.91S290.13,371,290.31,371Z" style="fill:#e0e0e0"></path><path d="M278.6,339.78c0,.18,5.56.33,12.41.33s12.4-.15,12.4-.33-5.55-.34-12.4-.34S278.6,339.59,278.6,339.78Z" style="fill:#e0e0e0"></path><path d="M278.47,356.88c0,.18,5.6.33,12.51.33s12.51-.15,12.51-.33-5.6-.34-12.51-.34S278.47,356.69,278.47,356.88Z" style="fill:#e0e0e0"></path><rect x="408.16" y="191.91" width="47.39" height="200.42" transform="translate(863.72 584.23) rotate(180)" style="fill:#ebebeb"></rect><rect x="432.32" y="205.95" width="14.4" height="27.76" transform="translate(879.04 439.66) rotate(180)" style="fill:#fff"></rect><path d="M439.11,233.71c.11,0,.2-6.21.2-13.88s-.09-13.88-.2-13.88-.19,6.22-.19,13.88S439,233.71,439.11,233.71Z" style="fill:#e0e0e0"></path><path d="M432.32,215.6a136.52,136.52,0,0,0,14.4,0,129.7,129.7,0,0,0-14.4,0Z" style="fill:#e0e0e0"></path><path d="M432.24,225.52a131.87,131.87,0,0,0,14.52,0,138.8,138.8,0,0,0-14.52,0Z" style="fill:#e0e0e0"></path><rect x="432.32" y="242.21" width="14.4" height="27.76" transform="translate(879.04 512.18) rotate(180)" style="fill:#fff"></rect><path d="M439.11,270c.11,0,.2-6.21.2-13.88s-.09-13.88-.2-13.88-.19,6.21-.19,13.88S439,270,439.11,270Z" style="fill:#e0e0e0"></path><path d="M432.32,251.85a129.7,129.7,0,0,0,14.4,0,136.52,136.52,0,0,0-14.4,0Z" style="fill:#e0e0e0"></path><path d="M432.24,261.78a138.8,138.8,0,0,0,14.52,0,138.8,138.8,0,0,0-14.52,0Z" style="fill:#e0e0e0"></path><rect x="432.32" y="278.47" width="14.4" height="27.76" transform="translate(879.04 584.7) rotate(180)" style="fill:#fff"></rect><path d="M439.11,306.23c.11,0,.2-6.22.2-13.88s-.09-13.88-.2-13.88-.19,6.21-.19,13.88S439,306.23,439.11,306.23Z" style="fill:#e0e0e0"></path><path d="M432.32,288.11a129.7,129.7,0,0,0,14.4,0,136.52,136.52,0,0,0-14.4,0Z" style="fill:#e0e0e0"></path><path d="M432.24,298a138.8,138.8,0,0,0,14.52,0,138.8,138.8,0,0,0-14.52,0Z" style="fill:#e0e0e0"></path><rect x="432.32" y="314.73" width="14.4" height="27.76" transform="translate(879.04 657.21) rotate(180)" style="fill:#fff"></rect><path d="M439.11,342.49c.11,0,.2-6.22.2-13.88s-.09-13.88-.2-13.88-.19,6.21-.19,13.88S439,342.49,439.11,342.49Z" style="fill:#e0e0e0"></path><path d="M432.32,324.37a136.52,136.52,0,0,0,14.4,0,136.52,136.52,0,0,0-14.4,0Z" style="fill:#e0e0e0"></path><path d="M432.24,334.3a138.8,138.8,0,0,0,14.52,0,138.8,138.8,0,0,0-14.52,0Z" style="fill:#e0e0e0"></path><rect x="388.01" y="191.91" width="34.53" height="200.42" transform="translate(810.54 584.23) rotate(180)" style="fill:#e0e0e0"></rect><rect x="397.41" y="205.95" width="14.4" height="27.76" transform="translate(809.22 439.66) rotate(180)" style="fill:#fff"></rect><path d="M404.21,233.71c.1,0,.19-6.21.19-13.88s-.09-13.88-.19-13.88-.2,6.22-.2,13.88S404.1,233.71,404.21,233.71Z" style="fill:#e0e0e0"></path><path d="M397.41,215.6a136.52,136.52,0,0,0,14.4,0,129.7,129.7,0,0,0-14.4,0Z" style="fill:#e0e0e0"></path><path d="M397.33,225.52a132.05,132.05,0,0,0,14.53,0,139,139,0,0,0-14.53,0Z" style="fill:#e0e0e0"></path><rect x="397.41" y="242.51" width="14.4" height="27.76" transform="translate(809.22 512.78) rotate(180)" style="fill:#fff"></rect><path d="M404.21,270.27c.1,0,.19-6.22.19-13.88s-.09-13.88-.19-13.88-.2,6.21-.2,13.88S404.1,270.27,404.21,270.27Z" style="fill:#e0e0e0"></path><path d="M397.41,252.15a129.7,129.7,0,0,0,14.4,0,136.52,136.52,0,0,0-14.4,0Z" style="fill:#e0e0e0"></path><path d="M397.33,262.08a139,139,0,0,0,14.53,0,139,139,0,0,0-14.53,0Z" style="fill:#e0e0e0"></path><rect x="397.41" y="279.06" width="14.4" height="27.76" transform="translate(809.22 585.89) rotate(180)" style="fill:#fff"></rect><path d="M404.21,306.82c.1,0,.19-6.21.19-13.88s-.09-13.88-.19-13.88-.2,6.22-.2,13.88S404.1,306.82,404.21,306.82Z" style="fill:#e0e0e0"></path><path d="M397.41,288.71a136.52,136.52,0,0,0,14.4,0,136.52,136.52,0,0,0-14.4,0Z" style="fill:#e0e0e0"></path><path d="M397.33,298.64a139,139,0,0,0,14.53,0,132.05,132.05,0,0,0-14.53,0Z" style="fill:#e0e0e0"></path><rect x="397.41" y="315.62" width="14.4" height="27.76" transform="translate(809.22 659) rotate(180)" style="fill:#fff"></rect><path d="M404.21,343.38c.1,0,.19-6.22.19-13.88s-.09-13.88-.19-13.88-.2,6.21-.2,13.88S404.1,343.38,404.21,343.38Z" style="fill:#e0e0e0"></path><path d="M397.41,325.26a129.7,129.7,0,0,0,14.4,0,136.52,136.52,0,0,0-14.4,0Z" style="fill:#e0e0e0"></path><path d="M397.33,335.19a139,139,0,0,0,14.53,0,139,139,0,0,0-14.53,0Z" style="fill:#e0e0e0"></path><rect x="432.32" y="350.98" width="14.4" height="27.76" transform="translate(879.04 729.73) rotate(180)" style="fill:#fff"></rect><path d="M439.11,378.74c.11,0,.2-6.21.2-13.88s-.09-13.88-.2-13.88-.19,6.22-.19,13.88S439,378.74,439.11,378.74Z" style="fill:#e0e0e0"></path><path d="M432.32,360.63a136.52,136.52,0,0,0,14.4,0,136.52,136.52,0,0,0-14.4,0Z" style="fill:#e0e0e0"></path><path d="M432.24,370.56a138.8,138.8,0,0,0,14.52,0,131.87,131.87,0,0,0-14.52,0Z" style="fill:#e0e0e0"></path><rect x="397.41" y="352.17" width="14.4" height="27.76" transform="translate(809.22 732.11) rotate(180)" style="fill:#fff"></rect><path d="M404.21,379.93c.1,0,.19-6.21.19-13.88s-.09-13.88-.19-13.88-.2,6.22-.2,13.88S404.1,379.93,404.21,379.93Z" style="fill:#e0e0e0"></path><path d="M397.41,361.82a136.52,136.52,0,0,0,14.4,0,136.52,136.52,0,0,0-14.4,0Z" style="fill:#e0e0e0"></path><path d="M397.33,371.75a139,139,0,0,0,14.53,0,132.05,132.05,0,0,0-14.53,0Z" style="fill:#e0e0e0"></path><rect x="31.27" y="183.35" width="49.35" height="208.71" style="fill:#ebebeb"></rect><rect x="40.47" y="197.98" width="15" height="28.91" style="fill:#fff"></rect><path d="M48.39,226.89c-.11,0-.2-6.48-.2-14.46s.09-14.45.2-14.45.2,6.47.2,14.45S48.5,226.89,48.39,226.89Z" style="fill:#e0e0e0"></path><path d="M55.47,208a70.67,70.67,0,0,1-7.5.2,70.67,70.67,0,0,1-7.5-.2,70.67,70.67,0,0,1,7.5-.2A70.67,70.67,0,0,1,55.47,208Z" style="fill:#e0e0e0"></path><path d="M55.55,218.36a71.85,71.85,0,0,1-7.56.2,71.69,71.69,0,0,1-7.56-.2,71.69,71.69,0,0,1,7.56-.2A71.85,71.85,0,0,1,55.55,218.36Z" style="fill:#e0e0e0"></path><rect x="40.47" y="235.74" width="15" height="28.91" style="fill:#fff"></rect><path d="M48.39,264.64c-.11,0-.2-6.47-.2-14.45s.09-14.45.2-14.45.2,6.47.2,14.45S48.5,264.64,48.39,264.64Z" style="fill:#e0e0e0"></path><path d="M55.47,245.78a70.67,70.67,0,0,1-7.5.2,70.67,70.67,0,0,1-7.5-.2,70.67,70.67,0,0,1,7.5-.2A70.67,70.67,0,0,1,55.47,245.78Z" style="fill:#e0e0e0"></path><path d="M55.55,256.12a71.85,71.85,0,0,1-7.56.2,71.69,71.69,0,0,1-7.56-.2,71.69,71.69,0,0,1,7.56-.2A71.85,71.85,0,0,1,55.55,256.12Z" style="fill:#e0e0e0"></path><rect x="40.47" y="273.49" width="15" height="28.91" style="fill:#fff"></rect><path d="M48.39,302.4c-.11,0-.2-6.47-.2-14.45s.09-14.46.2-14.46.2,6.47.2,14.46S48.5,302.4,48.39,302.4Z" style="fill:#e0e0e0"></path><path d="M55.47,283.54a70.67,70.67,0,0,1-7.5.2,70.67,70.67,0,0,1-7.5-.2,70.67,70.67,0,0,1,7.5-.2A70.67,70.67,0,0,1,55.47,283.54Z" style="fill:#e0e0e0"></path><path d="M55.55,293.87a71.85,71.85,0,0,1-7.56.2,71.69,71.69,0,0,1-7.56-.2,71.69,71.69,0,0,1,7.56-.2A71.85,71.85,0,0,1,55.55,293.87Z" style="fill:#e0e0e0"></path><rect x="40.47" y="311.25" width="15" height="28.91" style="fill:#fff"></rect><path d="M48.39,340.16c-.11,0-.2-6.48-.2-14.46s.09-14.45.2-14.45.2,6.47.2,14.45S48.5,340.16,48.39,340.16Z" style="fill:#e0e0e0"></path><path d="M55.47,321.29a70.67,70.67,0,0,1-7.5.2,70.67,70.67,0,0,1-7.5-.2,70.67,70.67,0,0,1,7.5-.2A70.67,70.67,0,0,1,55.47,321.29Z" style="fill:#e0e0e0"></path><path d="M55.55,331.63a71.85,71.85,0,0,1-7.56.2,71.69,71.69,0,0,1-7.56-.2,71.69,71.69,0,0,1,7.56-.2A71.85,71.85,0,0,1,55.55,331.63Z" style="fill:#e0e0e0"></path><rect x="65.65" y="183.35" width="35.96" height="208.71" style="fill:#e0e0e0"></rect><rect x="76.82" y="197.98" width="15" height="28.91" style="fill:#fff"></rect><path d="M84.74,226.89c-.11,0-.2-6.48-.2-14.46s.09-14.45.2-14.45.2,6.47.2,14.45S84.85,226.89,84.74,226.89Z" style="fill:#e0e0e0"></path><path d="M91.82,208a70.67,70.67,0,0,1-7.5.2,70.67,70.67,0,0,1-7.5-.2,70.67,70.67,0,0,1,7.5-.2A70.67,70.67,0,0,1,91.82,208Z" style="fill:#e0e0e0"></path><path d="M91.9,218.36a71.85,71.85,0,0,1-7.56.2,71.69,71.69,0,0,1-7.56-.2,71.69,71.69,0,0,1,7.56-.2A71.85,71.85,0,0,1,91.9,218.36Z" style="fill:#e0e0e0"></path><rect x="76.82" y="236.05" width="15" height="28.91" style="fill:#fff"></rect><path d="M84.74,265c-.11,0-.2-6.47-.2-14.45s.09-14.45.2-14.45.2,6.47.2,14.45S84.85,265,84.74,265Z" style="fill:#e0e0e0"></path><path d="M91.82,246.09a70.67,70.67,0,0,1-7.5.2,70.67,70.67,0,0,1-7.5-.2,70.67,70.67,0,0,1,7.5-.2A70.67,70.67,0,0,1,91.82,246.09Z" style="fill:#e0e0e0"></path><path d="M91.9,256.43a71.85,71.85,0,0,1-7.56.2,71.69,71.69,0,0,1-7.56-.2,71.69,71.69,0,0,1,7.56-.2A71.85,71.85,0,0,1,91.9,256.43Z" style="fill:#e0e0e0"></path><rect x="76.82" y="274.11" width="15" height="28.91" style="fill:#fff"></rect><path d="M84.74,303c-.11,0-.2-6.47-.2-14.45s.09-14.46.2-14.46.2,6.47.2,14.46S84.85,303,84.74,303Z" style="fill:#e0e0e0"></path><path d="M91.82,284.16a70.67,70.67,0,0,1-7.5.2,70.67,70.67,0,0,1-7.5-.2,66,66,0,0,1,7.5-.21A66,66,0,0,1,91.82,284.16Z" style="fill:#e0e0e0"></path><path d="M91.9,294.49a71.85,71.85,0,0,1-7.56.2,71.69,71.69,0,0,1-7.56-.2,71.69,71.69,0,0,1,7.56-.2A71.85,71.85,0,0,1,91.9,294.49Z" style="fill:#e0e0e0"></path><rect x="76.82" y="312.18" width="15" height="28.91" style="fill:#fff"></rect><path d="M84.74,341.09c-.11,0-.2-6.48-.2-14.46s.09-14.45.2-14.45.2,6.47.2,14.45S84.85,341.09,84.74,341.09Z" style="fill:#e0e0e0"></path><path d="M91.82,322.22a70.67,70.67,0,0,1-7.5.2,70.67,70.67,0,0,1-7.5-.2,70.67,70.67,0,0,1,7.5-.2A70.67,70.67,0,0,1,91.82,322.22Z" style="fill:#e0e0e0"></path><path d="M91.9,332.56a71.85,71.85,0,0,1-7.56.2,71.69,71.69,0,0,1-7.56-.2,71.69,71.69,0,0,1,7.56-.2A71.85,71.85,0,0,1,91.9,332.56Z" style="fill:#e0e0e0"></path><rect x="40.47" y="349.01" width="15" height="28.91" style="fill:#fff"></rect><path d="M48.39,377.91c-.11,0-.2-6.47-.2-14.45s.09-14.45.2-14.45.2,6.47.2,14.45S48.5,377.91,48.39,377.91Z" style="fill:#e0e0e0"></path><path d="M55.47,359.05a70.67,70.67,0,0,1-7.5.2,70.67,70.67,0,0,1-7.5-.2,70.67,70.67,0,0,1,7.5-.2A70.67,70.67,0,0,1,55.47,359.05Z" style="fill:#e0e0e0"></path><path d="M55.55,369.39a71.85,71.85,0,0,1-7.56.2,71.69,71.69,0,0,1-7.56-.2,71.69,71.69,0,0,1,7.56-.2A71.85,71.85,0,0,1,55.55,369.39Z" style="fill:#e0e0e0"></path><rect x="76.82" y="350.25" width="15" height="28.91" style="fill:#fff"></rect><path d="M84.74,379.15c-.11,0-.2-6.47-.2-14.45s.09-14.45.2-14.45.2,6.47.2,14.45S84.85,379.15,84.74,379.15Z" style="fill:#e0e0e0"></path><path d="M91.82,360.29a70.67,70.67,0,0,1-7.5.2,70.67,70.67,0,0,1-7.5-.2,70.67,70.67,0,0,1,7.5-.2A70.67,70.67,0,0,1,91.82,360.29Z" style="fill:#e0e0e0"></path><path d="M91.9,370.63a71.85,71.85,0,0,1-7.56.2,71.69,71.69,0,0,1-7.56-.2,71.69,71.69,0,0,1,7.56-.2A71.85,71.85,0,0,1,91.9,370.63Z" style="fill:#e0e0e0"></path><rect x="166.46" y="149.52" width="57.42" height="242.81" style="fill:#ebebeb"></rect><rect x="177.16" y="166.54" width="17.45" height="33.63" style="fill:#fff"></rect><path d="M186.38,200.16c-.13,0-.23-7.52-.23-16.81s.1-16.81.23-16.81.23,7.52.23,16.81S186.51,200.16,186.38,200.16Z" style="fill:#e0e0e0"></path><path d="M194.61,178.22a81.83,81.83,0,0,1-8.72.23,82.1,82.1,0,0,1-8.73-.23,82.1,82.1,0,0,1,8.73-.23A81.83,81.83,0,0,1,194.61,178.22Z" style="fill:#e0e0e0"></path><path d="M194.71,190.25a86.77,86.77,0,0,1-8.8.23,86.77,86.77,0,0,1-8.8-.23,81.66,81.66,0,0,1,8.8-.24A81.66,81.66,0,0,1,194.71,190.25Z" style="fill:#e0e0e0"></path><rect x="177.16" y="210.46" width="17.45" height="33.63" style="fill:#fff"></rect><path d="M186.38,244.09c-.13,0-.23-7.53-.23-16.81s.1-16.82.23-16.82.23,7.53.23,16.82S186.51,244.09,186.38,244.09Z" style="fill:#e0e0e0"></path><path d="M194.61,222.15a85.14,85.14,0,0,1-8.72.23,85.42,85.42,0,0,1-8.73-.23,80.39,80.39,0,0,1,8.73-.24A80.12,80.12,0,0,1,194.61,222.15Z" style="fill:#e0e0e0"></path><path d="M194.71,234.17a81.66,81.66,0,0,1-8.8.24,81.66,81.66,0,0,1-8.8-.24,83.4,83.4,0,0,1,8.8-.23A83.4,83.4,0,0,1,194.71,234.17Z" style="fill:#e0e0e0"></path><rect x="177.16" y="254.39" width="17.45" height="33.63" style="fill:#fff"></rect><path d="M186.38,288c-.13,0-.23-7.53-.23-16.82s.1-16.81.23-16.81.23,7.53.23,16.81S186.51,288,186.38,288Z" style="fill:#e0e0e0"></path><path d="M194.61,266.07a80.12,80.12,0,0,1-8.72.24,80.39,80.39,0,0,1-8.73-.24,82.1,82.1,0,0,1,8.73-.23A81.83,81.83,0,0,1,194.61,266.07Z" style="fill:#e0e0e0"></path><path d="M194.71,278.1a83.4,83.4,0,0,1-8.8.23,83.4,83.4,0,0,1-8.8-.23,83.4,83.4,0,0,1,8.8-.23A83.4,83.4,0,0,1,194.71,278.1Z" style="fill:#e0e0e0"></path><rect x="177.16" y="298.32" width="17.45" height="33.63" style="fill:#fff"></rect><path d="M186.38,331.94c-.13,0-.23-7.52-.23-16.81s.1-16.81.23-16.81.23,7.52.23,16.81S186.51,331.94,186.38,331.94Z" style="fill:#e0e0e0"></path><path d="M194.61,310a81.83,81.83,0,0,1-8.72.23,82.1,82.1,0,0,1-8.73-.23,82.1,82.1,0,0,1,8.73-.23A81.83,81.83,0,0,1,194.61,310Z" style="fill:#e0e0e0"></path><path d="M194.71,322a86.77,86.77,0,0,1-8.8.23,86.77,86.77,0,0,1-8.8-.23,81.66,81.66,0,0,1,8.8-.24A81.66,81.66,0,0,1,194.71,322Z" style="fill:#e0e0e0"></path><rect x="206.46" y="149.52" width="41.83" height="242.81" style="fill:#e0e0e0"></rect><rect x="219.45" y="166.54" width="17.45" height="33.63" style="fill:#fff"></rect><path d="M228.67,200.16c-.13,0-.23-7.52-.23-16.81s.1-16.81.23-16.81.23,7.52.23,16.81S228.8,200.16,228.67,200.16Z" style="fill:#e0e0e0"></path><path d="M236.9,178.22a81.83,81.83,0,0,1-8.72.23,82.1,82.1,0,0,1-8.73-.23,82.1,82.1,0,0,1,8.73-.23A81.83,81.83,0,0,1,236.9,178.22Z" style="fill:#e0e0e0"></path><path d="M237,190.25a86.77,86.77,0,0,1-8.8.23,86.77,86.77,0,0,1-8.8-.23,81.66,81.66,0,0,1,8.8-.24A81.66,81.66,0,0,1,237,190.25Z" style="fill:#e0e0e0"></path><rect x="219.45" y="210.82" width="17.45" height="33.63" style="fill:#fff"></rect><path d="M228.67,244.45c-.13,0-.23-7.53-.23-16.81s.1-16.82.23-16.82.23,7.53.23,16.82S228.8,244.45,228.67,244.45Z" style="fill:#e0e0e0"></path><path d="M236.9,222.51a85.14,85.14,0,0,1-8.72.23,85.42,85.42,0,0,1-8.73-.23,80.39,80.39,0,0,1,8.73-.24A80.12,80.12,0,0,1,236.9,222.51Z" style="fill:#e0e0e0"></path><path d="M237,234.53a81.66,81.66,0,0,1-8.8.24,81.66,81.66,0,0,1-8.8-.24,83.4,83.4,0,0,1,8.8-.23A83.4,83.4,0,0,1,237,234.53Z" style="fill:#e0e0e0"></path><rect x="219.45" y="255.11" width="17.45" height="33.63" style="fill:#fff"></rect><path d="M228.67,288.74c-.13,0-.23-7.53-.23-16.82s.1-16.81.23-16.81.23,7.53.23,16.81S228.8,288.74,228.67,288.74Z" style="fill:#e0e0e0"></path><path d="M236.9,266.79a80.12,80.12,0,0,1-8.72.24,80.39,80.39,0,0,1-8.73-.24,82.1,82.1,0,0,1,8.73-.23A81.83,81.83,0,0,1,236.9,266.79Z" style="fill:#e0e0e0"></path><path d="M237,278.82a83.4,83.4,0,0,1-8.8.23,83.4,83.4,0,0,1-8.8-.23,83.4,83.4,0,0,1,8.8-.23A83.4,83.4,0,0,1,237,278.82Z" style="fill:#e0e0e0"></path><rect x="219.45" y="299.4" width="17.45" height="33.63" style="fill:#fff"></rect><path d="M228.67,333c-.13,0-.23-7.53-.23-16.82s.1-16.81.23-16.81.23,7.52.23,16.81S228.8,333,228.67,333Z" style="fill:#e0e0e0"></path><path d="M236.9,311.08a81.83,81.83,0,0,1-8.72.23,82.1,82.1,0,0,1-8.73-.23,82.1,82.1,0,0,1,8.73-.23A81.83,81.83,0,0,1,236.9,311.08Z" style="fill:#e0e0e0"></path><path d="M237,323.11a83.4,83.4,0,0,1-8.8.23,83.4,83.4,0,0,1-8.8-.23,81.66,81.66,0,0,1,8.8-.24A81.66,81.66,0,0,1,237,323.11Z" style="fill:#e0e0e0"></path><rect x="177.16" y="342.24" width="17.45" height="33.63" style="fill:#fff"></rect><path d="M186.38,375.87c-.13,0-.23-7.53-.23-16.81s.1-16.82.23-16.82.23,7.53.23,16.82S186.51,375.87,186.38,375.87Z" style="fill:#e0e0e0"></path><path d="M194.61,353.92a80.12,80.12,0,0,1-8.72.24,80.39,80.39,0,0,1-8.73-.24,85.42,85.42,0,0,1,8.73-.23A85.14,85.14,0,0,1,194.61,353.92Z" style="fill:#e0e0e0"></path><path d="M194.71,366a81.66,81.66,0,0,1-8.8.24,81.66,81.66,0,0,1-8.8-.24,83.4,83.4,0,0,1,8.8-.23A83.4,83.4,0,0,1,194.71,366Z" style="fill:#e0e0e0"></path><rect x="219.45" y="343.68" width="17.45" height="33.63" style="fill:#fff"></rect><path d="M228.67,377.31c-.13,0-.23-7.53-.23-16.81s.1-16.82.23-16.82.23,7.53.23,16.82S228.8,377.31,228.67,377.31Z" style="fill:#e0e0e0"></path><path d="M236.9,355.37a81.83,81.83,0,0,1-8.72.23,82.1,82.1,0,0,1-8.73-.23,80.39,80.39,0,0,1,8.73-.24A80.12,80.12,0,0,1,236.9,355.37Z" style="fill:#e0e0e0"></path><path d="M237,367.39a81.66,81.66,0,0,1-8.8.24,81.66,81.66,0,0,1-8.8-.24,83.4,83.4,0,0,1,8.8-.23A83.4,83.4,0,0,1,237,367.39Z" style="fill:#e0e0e0"></path><rect x="110.84" y="227.28" width="39.03" height="165.05" style="fill:#ebebeb"></rect><rect x="118.11" y="238.85" width="11.86" height="22.86" style="fill:#fff"></rect><path d="M124.38,261.7c-.09,0-.16-5.11-.16-11.42s.07-11.43.16-11.43.15,5.11.15,11.43S124.46,261.7,124.38,261.7Z" style="fill:#e0e0e0"></path><path d="M130,246.79A57.73,57.73,0,0,1,124,247a57.9,57.9,0,0,1-5.93-.16,54.66,54.66,0,0,1,5.93-.16A54.51,54.51,0,0,1,130,246.79Z" style="fill:#e0e0e0"></path><path d="M130,255a55.27,55.27,0,0,1-6,.16,55.39,55.39,0,0,1-6-.16,55.39,55.39,0,0,1,6-.16A55.27,55.27,0,0,1,130,255Z" style="fill:#e0e0e0"></path><rect x="118.11" y="268.7" width="11.86" height="22.86" style="fill:#fff"></rect><path d="M124.38,291.56c-.09,0-.16-5.11-.16-11.43s.07-11.43.16-11.43.15,5.12.15,11.43S124.46,291.56,124.38,291.56Z" style="fill:#e0e0e0"></path><path d="M130,276.65c0,.08-2.65.15-5.93.15s-5.93-.07-5.93-.15a54.66,54.66,0,0,1,5.93-.16A54.51,54.51,0,0,1,130,276.65Z" style="fill:#e0e0e0"></path><path d="M130,284.82a55.27,55.27,0,0,1-6,.16,55.39,55.39,0,0,1-6-.16,55.39,55.39,0,0,1,6-.16A55.27,55.27,0,0,1,130,284.82Z" style="fill:#e0e0e0"></path><rect x="118.11" y="298.56" width="11.86" height="22.86" style="fill:#fff"></rect><path d="M124.38,321.42c-.09,0-.16-5.12-.16-11.43s.07-11.43.16-11.43.15,5.12.15,11.43S124.46,321.42,124.38,321.42Z" style="fill:#e0e0e0"></path><path d="M130,306.5a54.51,54.51,0,0,1-5.93.16,54.66,54.66,0,0,1-5.93-.16c0-.08,2.66-.15,5.93-.15S130,306.42,130,306.5Z" style="fill:#e0e0e0"></path><path d="M130,314.68a55.27,55.27,0,0,1-6,.16,55.39,55.39,0,0,1-6-.16,55.39,55.39,0,0,1,6-.16A55.27,55.27,0,0,1,130,314.68Z" style="fill:#e0e0e0"></path><rect x="118.11" y="328.42" width="11.86" height="22.86" style="fill:#fff"></rect><path d="M124.38,351.28c-.09,0-.16-5.12-.16-11.43s.07-11.43.16-11.43.15,5.12.15,11.43S124.46,351.28,124.38,351.28Z" style="fill:#e0e0e0"></path><path d="M130,336.36a54.51,54.51,0,0,1-5.93.16,54.66,54.66,0,0,1-5.93-.16,57.9,57.9,0,0,1,5.93-.16A57.73,57.73,0,0,1,130,336.36Z" style="fill:#e0e0e0"></path><path d="M130,344.54a55.27,55.27,0,0,1-6,.16,55.39,55.39,0,0,1-6-.16,55.39,55.39,0,0,1,6-.16A55.27,55.27,0,0,1,130,344.54Z" style="fill:#e0e0e0"></path><rect x="138.03" y="227.28" width="28.44" height="165.05" style="fill:#e0e0e0"></rect><rect x="146.86" y="238.85" width="11.86" height="22.86" style="fill:#fff"></rect><path d="M153.12,261.7c-.09,0-.16-5.11-.16-11.42s.07-11.43.16-11.43.16,5.11.16,11.43S153.21,261.7,153.12,261.7Z" style="fill:#e0e0e0"></path><path d="M158.72,246.79a57.9,57.9,0,0,1-5.93.16,57.73,57.73,0,0,1-5.93-.16,54.51,54.51,0,0,1,5.93-.16A54.66,54.66,0,0,1,158.72,246.79Z" style="fill:#e0e0e0"></path><path d="M158.78,255a55.54,55.54,0,0,1-6,.16,55.54,55.54,0,0,1-6-.16,55.54,55.54,0,0,1,6-.16A55.54,55.54,0,0,1,158.78,255Z" style="fill:#e0e0e0"></path><rect x="146.86" y="268.95" width="11.86" height="22.86" style="fill:#fff"></rect><path d="M153.12,291.81c-.09,0-.16-5.12-.16-11.43S153,269,153.12,269s.16,5.12.16,11.43S153.21,291.81,153.12,291.81Z" style="fill:#e0e0e0"></path><path d="M158.72,276.89a54.66,54.66,0,0,1-5.93.16,54.51,54.51,0,0,1-5.93-.16,54.51,54.51,0,0,1,5.93-.16A54.66,54.66,0,0,1,158.72,276.89Z" style="fill:#e0e0e0"></path><path d="M158.78,285.07c0,.08-2.68.15-6,.15s-6-.07-6-.15a55.54,55.54,0,0,1,6-.16A55.54,55.54,0,0,1,158.78,285.07Z" style="fill:#e0e0e0"></path><rect x="146.86" y="299.05" width="11.86" height="22.86" style="fill:#fff"></rect><path d="M153.12,321.91c-.09,0-.16-5.12-.16-11.43s.07-11.43.16-11.43.16,5.12.16,11.43S153.21,321.91,153.12,321.91Z" style="fill:#e0e0e0"></path><path d="M158.72,307a54.66,54.66,0,0,1-5.93.16,54.51,54.51,0,0,1-5.93-.16c0-.08,2.65-.15,5.93-.15S158.72,306.91,158.72,307Z" style="fill:#e0e0e0"></path><path d="M158.78,315.17a55.54,55.54,0,0,1-6,.16,55.54,55.54,0,0,1-6-.16,55.54,55.54,0,0,1,6-.16A55.54,55.54,0,0,1,158.78,315.17Z" style="fill:#e0e0e0"></path><rect x="146.86" y="329.16" width="11.86" height="22.86" style="fill:#fff"></rect><path d="M153.12,352c-.09,0-.16-5.12-.16-11.43s.07-11.43.16-11.43.16,5.11.16,11.43S153.21,352,153.12,352Z" style="fill:#e0e0e0"></path><path d="M158.72,337.1a54.66,54.66,0,0,1-5.93.16,54.51,54.51,0,0,1-5.93-.16,54.51,54.51,0,0,1,5.93-.16A54.66,54.66,0,0,1,158.72,337.1Z" style="fill:#e0e0e0"></path><path d="M158.78,345.27a55.54,55.54,0,0,1-6,.16,55.54,55.54,0,0,1-6-.16,58.84,58.84,0,0,1,6-.16A58.84,58.84,0,0,1,158.78,345.27Z" style="fill:#e0e0e0"></path><rect x="118.11" y="358.28" width="11.86" height="22.86" style="fill:#fff"></rect><path d="M124.38,381.14c-.09,0-.16-5.12-.16-11.43s.07-11.43.16-11.43.15,5.12.15,11.43S124.46,381.14,124.38,381.14Z" style="fill:#e0e0e0"></path><path d="M130,366.22a54.51,54.51,0,0,1-5.93.16,54.66,54.66,0,0,1-5.93-.16,54.66,54.66,0,0,1,5.93-.16A54.51,54.51,0,0,1,130,366.22Z" style="fill:#e0e0e0"></path><path d="M130,374.4a55.27,55.27,0,0,1-6,.16,55.39,55.39,0,0,1-6-.16,55.39,55.39,0,0,1,6-.16A55.27,55.27,0,0,1,130,374.4Z" style="fill:#e0e0e0"></path><rect x="146.86" y="359.26" width="11.86" height="22.86" style="fill:#fff"></rect><path d="M153.12,382.12c-.09,0-.16-5.12-.16-11.43s.07-11.43.16-11.43.16,5.12.16,11.43S153.21,382.12,153.12,382.12Z" style="fill:#e0e0e0"></path><path d="M158.72,367.2a54.66,54.66,0,0,1-5.93.16,54.51,54.51,0,0,1-5.93-.16,54.51,54.51,0,0,1,5.93-.16A54.66,54.66,0,0,1,158.72,367.2Z" style="fill:#e0e0e0"></path><path d="M158.78,375.38a58.84,58.84,0,0,1-6,.16,58.84,58.84,0,0,1-6-.16,55.54,55.54,0,0,1,6-.16A55.54,55.54,0,0,1,158.78,375.38Z" style="fill:#e0e0e0"></path><path d="M481.7,392.32c0,.15-103.48.26-231.11.26s-231.13-.11-231.13-.26,103.46-.26,231.13-.26S481.7,392.18,481.7,392.32Z" style="fill:#e0e0e0"></path><polygon points="116.23 377.43 128 379.36 128 398.35 116.23 400.63 116.23 377.43" style="fill:#f5f5f5"></polygon><rect x="127.58" y="377.09" width="2.99" height="23.2" rx="1.05" style="fill:#f5f5f5"></rect><path d="M130,383.31h1.8a3.16,3.16,0,0,1,3.16,3.16v2.64a3.16,3.16,0,0,1-3.16,3.16H130a0,0,0,0,1,0,0v-9A0,0,0,0,1,130,383.31Z" style="fill:#f5f5f5"></path><path d="M127.5,398.43c-.17,0-.3-4.26-.3-9.51s.13-9.52.3-9.52a78.39,78.39,0,0,1,.29,9.52A78.29,78.29,0,0,1,127.5,398.43Z" style="fill:#e0e0e0"></path><path d="M130.41,398.55a78.15,78.15,0,0,1-.29-9.51,78.29,78.29,0,0,1,.29-9.51,78.29,78.29,0,0,1,.29,9.51A78.15,78.15,0,0,1,130.41,398.55Z" style="fill:#e0e0e0"></path><path d="M74,451.51V355.14A21.13,21.13,0,0,1,95.09,334h0a21.14,21.14,0,0,1,21.14,21.13v96.37Z" style="fill:#f5f5f5"></path><rect x="67.3" y="357.44" width="56.01" height="11.68" rx="4.12" style="fill:#f5f5f5"></rect><path d="M88.57,335.53l0-.83a6.05,6.05,0,0,1,5.69-6.4l1.64-.08a6,6,0,0,1,6.3,5.79l.08,1.44Z" style="fill:#f5f5f5"></path><path d="M94.79,325.87H96a1.41,1.41,0,0,1,1.41,1.41v2a0,0,0,0,1,0,0h-4a0,0,0,0,1,0,0v-2A1.41,1.41,0,0,1,94.79,325.87Z" style="fill:#f5f5f5"></path><path d="M116.23,357.26c0,.16-9.45.29-21.09.29s-21.1-.13-21.1-.29,9.44-.29,21.1-.29S116.23,357.1,116.23,357.26Z" style="fill:#e0e0e0"></path><path d="M89.16,336.32c0,.09-1.22.59-3.12,1.62a21.45,21.45,0,0,0-6.49,5.22,18.85,18.85,0,0,0-3.47,7.54c-.45,2.11-.35,3.47-.46,3.47a2.71,2.71,0,0,1-.12-.95,11.82,11.82,0,0,1,.18-2.59,17.44,17.44,0,0,1,3.41-7.83,19.53,19.53,0,0,1,6.76-5.23,21.94,21.94,0,0,1,2.39-1A2.51,2.51,0,0,1,89.16,336.32Z" style="fill:#fafafa"></path><path d="M102.24,335.09c-.06.21-3-1-6.91-1.06s-6.84,1.21-6.9,1a5.62,5.62,0,0,1,1.91-.84,15.78,15.78,0,0,1,5-.75,17,17,0,0,1,5,.82A5.89,5.89,0,0,1,102.24,335.09Z" style="fill:#e0e0e0"></path><path d="M97.8,328.59a14.92,14.92,0,0,1-2.26-.16,13.51,13.51,0,0,1-2.28,0c-.06-.14.94-.66,2.29-.62S97.88,328.45,97.8,328.59Z" style="fill:#e0e0e0"></path><path d="M110.08,391.56A14.61,14.61,0,1,1,95.47,377,14.61,14.61,0,0,1,110.08,391.56Z" style="fill:#e0e0e0"></path><path d="M110.08,389a14.61,14.61,0,1,1-14.61-14.6A14.6,14.6,0,0,1,110.08,389Z" style="fill:#f5f5f5"></path><path d="M110.08,389a28.39,28.39,0,0,0-.57-3.54,14.57,14.57,0,0,0-5.33-7.9,14.22,14.22,0,0,0-6.06-2.66,14.45,14.45,0,0,0-7.53.64,14.24,14.24,0,0,0-6.64,5,14.24,14.24,0,0,0,0,16.92,13.7,13.7,0,0,0,3,3.05,13.54,13.54,0,0,0,3.62,1.95,14.48,14.48,0,0,0,18.92-9.92,28.39,28.39,0,0,0,.57-3.54,6,6,0,0,1,0,.93,6.3,6.3,0,0,1-.09,1.14,10.22,10.22,0,0,1-.27,1.52,14.68,14.68,0,0,1-11.52,11,14.82,14.82,0,0,1-7.8-.61,14.84,14.84,0,0,1-6.93-5.17,14.8,14.8,0,0,1,0-17.6,14.84,14.84,0,0,1,6.93-5.17,14.82,14.82,0,0,1,7.8-.61,14.72,14.72,0,0,1,11.52,11A10.22,10.22,0,0,1,110,387a6.3,6.3,0,0,1,.09,1.14A6,6,0,0,1,110.08,389Z" style="fill:#e0e0e0"></path><path d="M101.47,386A6.74,6.74,0,1,1,92.4,383,6.73,6.73,0,0,1,101.47,386Z" style="fill:#e0e0e0"></path><path d="M100.08,389a4.61,4.61,0,1,1-4.61-4.6A4.6,4.6,0,0,1,100.08,389Z" style="fill:#f5f5f5"></path><path d="M100.08,389c-.06,0-.06-.41-.26-1.1a4.58,4.58,0,0,0-1.69-2.39,4.35,4.35,0,1,0,0,7,4.58,4.58,0,0,0,1.69-2.39c.2-.69.2-1.1.26-1.1a2.55,2.55,0,0,1,0,1.15,4.56,4.56,0,0,1-1.66,2.67,4.78,4.78,0,0,1-4.57.76,4.86,4.86,0,0,1,0-9.16,4.81,4.81,0,0,1,4.57.76,4.56,4.56,0,0,1,1.66,2.67A2.55,2.55,0,0,1,100.08,389Z" style="fill:#e0e0e0"></path><path d="M116.23,369.28c0,.16-9.55.29-21.31.29s-21.31-.13-21.31-.29,9.54-.29,21.31-.29S116.23,369.12,116.23,369.28Z" style="fill:#e0e0e0"></path><path d="M73.61,358.77a14.26,14.26,0,0,1-1.38.37,5.2,5.2,0,0,0-3.68,5,12.12,12.12,0,0,1,.06,1.42c-.06,0-.37-.48-.47-1.41a5,5,0,0,1,4-5.4C73,358.55,73.62,358.7,73.61,358.77Z" style="fill:#fafafa"></path><path d="M88.71,378c.05.09-1,.59-2.28,1.79a12.52,12.52,0,0,0-3.73,12.6c.45,1.73,1,2.7.94,2.75s-.21-.2-.47-.64a10.68,10.68,0,0,1-.87-2,12.25,12.25,0,0,1-.08-7.11,12.11,12.11,0,0,1,3.94-5.92,10.07,10.07,0,0,1,1.81-1.2C88.43,378,88.7,377.94,88.71,378Z" style="fill:#fafafa"></path><path d="M116.23,409c-.17,0-.3-8.95-.3-20s.13-20,.3-20,.29,9,.29,20S116.39,409,116.23,409Z" style="fill:#e0e0e0"></path><path d="M60.24,463.33v-4.67a3.5,3.5,0,0,1,3.5-3.5h0v-1.5A6.68,6.68,0,0,1,70.42,447h47.36c3.69,0,6.63,4.17,6.63,7.85h1.68c1.93,0,3.51.4,3.51,2.33v6.17Z" style="fill:#e0e0e0"></path><path d="M126.09,454.83c0,.17-14,.3-31.26.3s-31.26-.13-31.26-.3,14-.29,31.26-.29S126.09,454.67,126.09,454.83Z" style="fill:#f5f5f5"></path><polygon points="74.04 400.11 62.27 398.18 62.27 379.2 74.04 376.91 74.04 400.11" style="fill:#f5f5f5"></polygon><rect x="59.7" y="377.26" width="2.99" height="23.2" rx="1.05" transform="translate(122.39 777.72) rotate(180)" style="fill:#f5f5f5"></rect><path d="M55.34,385.27h1.8a3.16,3.16,0,0,1,3.16,3.16v2.64a3.16,3.16,0,0,1-3.16,3.16h-1.8a0,0,0,0,1,0,0v-9A0,0,0,0,1,55.34,385.27Z" transform="translate(115.64 779.5) rotate(180)" style="fill:#f5f5f5"></path><path d="M62.77,379.12a77,77,0,0,1,.3,9.51,77,77,0,0,1-.3,9.51,78.29,78.29,0,0,1-.29-9.51A78.29,78.29,0,0,1,62.77,379.12Z" style="fill:#e0e0e0"></path><path d="M59.86,379a78.29,78.29,0,0,1,.29,9.51,78.29,78.29,0,0,1-.29,9.51,77,77,0,0,1-.3-9.51A77,77,0,0,1,59.86,379Z" style="fill:#e0e0e0"></path><path d="M74.05,420.83c-.16,0-.3-11.32-.3-25.28s.14-25.28.3-25.28.29,11.32.29,25.28S74.21,420.83,74.05,420.83Z" style="fill:#e0e0e0"></path></g><g id="freepik--Floor--inject-2"><path d="M474.19,473c0,.14-101.3.26-226.23.26S21.71,473.13,21.71,473,123,472.73,248,472.73,474.19,472.85,474.19,473Z" style="fill:#263238"></path><path d="M474.19,463.27c0,.14-101.3.26-226.23.26s-226.25-.12-226.25-.26S123,463,248,463,474.19,463.13,474.19,463.27Z" style="fill:#263238"></path><path d="M257.33,473.25a46.21,46.21,0,0,1,0-9.79,46.21,46.21,0,0,1,0,9.79Z" style="fill:#263238"></path><path d="M288.11,473.25a46.21,46.21,0,0,1,0-9.79,46.21,46.21,0,0,1,0,9.79Z" style="fill:#263238"></path><path d="M318.9,473.25a46.21,46.21,0,0,1,0-9.79,46.21,46.21,0,0,1,0,9.79Z" style="fill:#263238"></path><path d="M349.68,473.25a46.21,46.21,0,0,1,0-9.79,46.21,46.21,0,0,1,0,9.79Z" style="fill:#263238"></path><path d="M117.41,473.25a46.21,46.21,0,0,1,0-9.79,46.21,46.21,0,0,1,0,9.79Z" style="fill:#263238"></path><path d="M148.19,473.25a46.21,46.21,0,0,1,0-9.79,46.21,46.21,0,0,1,0,9.79Z" style="fill:#263238"></path><path d="M179,473.25a46.21,46.21,0,0,1,0-9.79,46.21,46.21,0,0,1,0,9.79Z" style="fill:#263238"></path><path d="M209.76,473.25a46.21,46.21,0,0,1,0-9.79,46.21,46.21,0,0,1,0,9.79Z" style="fill:#263238"></path><path d="M39.06,473.25a46.21,46.21,0,0,1,0-9.79,46.21,46.21,0,0,1,0,9.79Z" style="fill:#263238"></path><path d="M79,473.25a46.21,46.21,0,0,1,0-9.79,46.21,46.21,0,0,1,0,9.79Z" style="fill:#263238"></path><path d="M380.46,473.25a46.21,46.21,0,0,1,0-9.79,46.21,46.21,0,0,1,0,9.79Z" style="fill:#263238"></path><path d="M411.25,473.25a46.21,46.21,0,0,1,0-9.79,46.21,46.21,0,0,1,0,9.79Z" style="fill:#263238"></path><path d="M442,473.25a46.21,46.21,0,0,1,0-9.79,46.21,46.21,0,0,1,0,9.79Z" style="fill:#263238"></path><path d="M472.81,473.25a46.21,46.21,0,0,1,0-9.79,46.21,46.21,0,0,1,0,9.79Z" style="fill:#263238"></path></g><g id="freepik--Plants--inject-2"><path d="M338.59,463.27c-.09,0-.28-1.16-.84-3a26.5,26.5,0,0,0-8-12.24c-1.45-1.23-2.45-1.88-2.4-1.95a2.46,2.46,0,0,1,.75.37,17.4,17.4,0,0,1,1.88,1.3,23.48,23.48,0,0,1,8.16,12.42,15.86,15.86,0,0,1,.44,2.24A2.35,2.35,0,0,1,338.59,463.27Z" style="fill:#263238"></path><path d="M343.62,442.32a22.33,22.33,0,0,1-.36,3c-.25,1.86-.53,4.44-.67,7.3s-.09,5.45,0,7.33a22.72,22.72,0,0,1,.07,3,14.94,14.94,0,0,1-.44-3,56.54,56.54,0,0,1,.7-14.7A14.34,14.34,0,0,1,343.62,442.32Z" style="fill:#263238"></path><path d="M351.64,452.89a42.53,42.53,0,0,0-2.85,4.91,45.14,45.14,0,0,0-1.69,5.41,14.43,14.43,0,0,1,4.54-10.32Z" style="fill:#263238"></path><path d="M90.22,463.27c-.09,0-.28-1.15-.84-2.95a26.44,26.44,0,0,0-3.13-6.64,26.77,26.77,0,0,0-4.84-5.51C80,446.94,79,446.31,79,446.23a2.48,2.48,0,0,1,.74.37,15.79,15.79,0,0,1,1.87,1.29,23.28,23.28,0,0,1,8.1,12.32,17,17,0,0,1,.44,2.23A2.41,2.41,0,0,1,90.22,463.27Z" style="fill:#263238"></path><path d="M95.21,442.48a22.86,22.86,0,0,1-.35,3c-.25,1.85-.53,4.4-.67,7.24s-.09,5.41,0,7.27a22.41,22.41,0,0,1,.07,3,14.71,14.71,0,0,1-.44-3,57.52,57.52,0,0,1-.13-7.32,56.68,56.68,0,0,1,.82-7.27A14.94,14.94,0,0,1,95.21,442.48Z" style="fill:#263238"></path><path d="M103.17,453a43.8,43.8,0,0,0-2.82,4.87,44.65,44.65,0,0,0-1.69,5.37,12,12,0,0,1,1.21-5.58A11.66,11.66,0,0,1,103.17,453Z" style="fill:#263238"></path><path d="M428.65,433.64a5.66,5.66,0,0,1,2.93,3.32,9.92,9.92,0,0,1,.39,4.5,17.62,17.62,0,0,1-3.77,8.19c-2.46-2.14-3-5.88-3.19-7.8-.27-3,1.09-8.66,3.64-8.21" style="fill:#92E3A9"></path><path d="M431.05,454.47a4.85,4.85,0,0,1,1.56-4.59,6.45,6.45,0,0,1,4.73-1.47,2.69,2.69,0,0,1,2.07.93,2.08,2.08,0,0,1,0,2.09A4.21,4.21,0,0,1,437.9,453c-2.13,1.33-4.44,2.23-6.85,1.51" style="fill:#92E3A9"></path><path d="M427.9,463.42a4.16,4.16,0,0,1,.09-.6c.08-.42.18-1,.3-1.62A17,17,0,0,1,430,456a10.36,10.36,0,0,1,3.72-3.95,7.1,7.1,0,0,1,1.51-.67c.19-.06.34-.08.44-.11l.15,0a12,12,0,0,0-2,.93,10.72,10.72,0,0,0-3.6,3.93,17.61,17.61,0,0,0-1.71,5.1c-.15.68-.27,1.23-.37,1.61A2.38,2.38,0,0,1,427.9,463.42Z" style="fill:#263238"></path><path d="M428,438l0,.27,0,.75c0,.65.07,1.6.11,2.77.08,2.33.14,5.57.12,9.14s-.1,6.8-.2,9.14c-.05,1.17-.09,2.11-.13,2.76,0,.31,0,.56-.05.76a1.11,1.11,0,0,1,0,.26s0-.09,0-.27v-.75c0-.68,0-1.62.07-2.77.06-2.34.12-5.57.14-9.13s0-6.8-.06-9.14c0-1.15,0-2.09,0-2.77v-.75A.8.8,0,0,1,428,438Z" style="fill:#263238"></path><path d="M426.8,456.25a11.29,11.29,0,0,0-6.16-8.27,2.39,2.39,0,0,0-2.57,0,2.33,2.33,0,0,0-.19,2.56,9.63,9.63,0,0,0,8.86,6" style="fill:#92E3A9"></path><path d="M421,450.75a3.74,3.74,0,0,1,.52.23,4.31,4.31,0,0,1,.59.31,11.23,11.23,0,0,1,1.61,1.12,9.65,9.65,0,0,1,.91.83,11.89,11.89,0,0,1,1.74,2.23,12.27,12.27,0,0,1,1.14,2.58,10.38,10.38,0,0,1,.29,1.2c.08.38.11.74.15,1.07s0,.62,0,.88a6.64,6.64,0,0,1,0,.67,2.37,2.37,0,0,1-.07.56s0-.81-.1-2.1c0-.32-.09-.67-.18-1a9.74,9.74,0,0,0-.3-1.18,12.16,12.16,0,0,0-1.14-2.53,12.71,12.71,0,0,0-1.69-2.21,11.25,11.25,0,0,0-.89-.83c-.28-.26-.57-.46-.83-.66C421.76,451.13,421,450.79,421,450.75Z" style="fill:#263238"></path></g><g id="freepik--Lines--inject-2"><path d="M168.1,211.35c0,.14-12.29.26-27.44.26s-27.45-.12-27.45-.26,12.29-.26,27.45-.26S168.1,211.21,168.1,211.35Z" style="fill:#263238"></path><path d="M186.52,205.1c0,.14-12.29.26-27.45.26s-27.44-.12-27.44-.26,12.28-.26,27.44-.26S186.52,205,186.52,205.1Z" style="fill:#263238"></path></g><g id="freepik--Character--inject-2"><rect x="312.19" y="208.54" width="5.71" height="1.71" rx="0.73" transform="translate(-39.7 78.03) rotate(-13.29)" style="fill:#263238"></rect><path d="M273.56,217.48s21.86,14.2,28.77,14.2,14.39-3.74,17.94-7.1a116.94,116.94,0,0,0,8.78-10.09l-10.28-5.05s-6.35,1.35-10.08,2.36-10.28,1-10.28,1l-12.33-10.37Z" style="fill:#e49384"></path><path d="M313.84,210.53s2.21,4.42,6.34,6.1a11.71,11.71,0,0,0,6.44,1l3-2.42s-11.3-1.28-12.85-5.38Z" style="fill:#455a64"></path><path d="M297.37,223.47c-.15-.05.68-2.33.94-5.28s-.14-5.33,0-5.36a15,15,0,0,1-1,10.64Z" style="fill:#a86b62"></path><path d="M317.77,212.92c-.28-.24-2.59-2.25-2.1-4a5.7,5.7,0,0,1,1.71-2.68s-2.26-4.15-1.78-5.53,1.21-2.68,3.33-2.11c0,0,.4-3.1,2.43-3.1s2.69.82,2.69.82a1.33,1.33,0,0,1,1.79-1.38l1.87.4a2.84,2.84,0,0,1,2.36-.46c1.46.3,4.63,2.33,5,3.63a49.35,49.35,0,0,1,.32,6.18s.41,3.83-.81,5.7-5.49,4.95-5.49,4.95S322,216.62,317.77,212.92Z" style="fill:#e49384"></path><path d="M318.15,206.84s.19,0,.49,0a3.2,3.2,0,0,0,1.23-.38,3.38,3.38,0,0,1,2.05-.54,2.29,2.29,0,0,1,1.74,1.95,3.13,3.13,0,0,1-.88,2.46,6.13,6.13,0,0,1-3.53,1.71,11.37,11.37,0,0,1,1.65-.85,5.18,5.18,0,0,0,1.52-1.18,2.7,2.7,0,0,0,.72-2.07,1.84,1.84,0,0,0-1.31-1.55,3.29,3.29,0,0,0-1.81.4,2.68,2.68,0,0,1-1.39.25C318.28,207,318.13,206.87,318.15,206.84Z" style="fill:#a86b62"></path><path d="M321.4,200.07a5,5,0,0,1,1.29,1,11.7,11.7,0,0,1,2.49,3.08,4.79,4.79,0,0,1,.63,2.16,2.28,2.28,0,0,1-.72,1.73,1.56,1.56,0,0,1-1.2.39c-.3,0-.44-.15-.42-.18s.16,0,.42,0a1.47,1.47,0,0,0,.95-.46,2,2,0,0,0,.49-1.46,4.76,4.76,0,0,0-.61-1.92,15.65,15.65,0,0,0-2.29-3.06C321.76,200.59,321.34,200.12,321.4,200.07Z" style="fill:#a86b62"></path><path d="M325.53,198.05a5.56,5.56,0,0,1,1.54,1.23,7.51,7.51,0,0,1,2.24,4.21,4.75,4.75,0,0,1-.37,2.67,2.69,2.69,0,0,1-1.65,1.49,1.91,1.91,0,0,1-1.49-.2c-.3-.2-.38-.39-.36-.41s.16.11.46.23a1.82,1.82,0,0,0,1.28,0A2.32,2.32,0,0,0,328.5,206a4.4,4.4,0,0,0,.29-2.4,8,8,0,0,0-2-4A11.13,11.13,0,0,1,325.53,198.05Z" style="fill:#a86b62"></path><path d="M329.18,205.51a2.31,2.31,0,0,0,1.51-.21c.85-.47.84-2.05.93-3.55a5.69,5.69,0,0,0-1.28-3.56,7,7,0,0,1-.94-1.38c.05,0,.54.36,1.23,1.15a7.22,7.22,0,0,1,1,1.54,4.83,4.83,0,0,1,.48,2.25,15.27,15.27,0,0,1-.23,2.25,2.18,2.18,0,0,1-1,1.61,1.71,1.71,0,0,1-1.29.14C329.29,205.66,329.17,205.53,329.18,205.51Z" style="fill:#a86b62"></path><path d="M335,201.36c.07,0,.11.35.07.91a3.17,3.17,0,0,1-.92,2.06,1.94,1.94,0,0,1-1.23.51,1.48,1.48,0,0,1-1-.38c-.47-.46-.38-.92-.32-.9s.14.34.55.61a1.36,1.36,0,0,0,1.67-.23,3.45,3.45,0,0,0,.9-1.73C334.83,201.68,334.92,201.35,335,201.36Z" style="fill:#a86b62"></path><path d="M329.07,213.15a9.65,9.65,0,0,0-1.44-3.18,10,10,0,0,0-2.81-2.07c0-.06.44-.05,1.08.18a5.14,5.14,0,0,1,3.22,4C329.22,212.73,329.14,213.15,329.07,213.15Z" style="fill:#a86b62"></path><path d="M327.94,215.58a9.73,9.73,0,0,1-2.09.08,14.13,14.13,0,0,1-5-.79,11.17,11.17,0,0,1-4.23-2.82,3.71,3.71,0,0,1-1-1.85c.09,0,.4.71,1.28,1.6a12.83,12.83,0,0,0,4.15,2.59,16.88,16.88,0,0,0,4.84.9A7.26,7.26,0,0,1,327.94,215.58Z" style="fill:#a86b62"></path><path d="M190.46,418.82,180.4,439.47s18.26,15.62,16.78,19.61l-41.39-16.52,14.35-32.82Z" style="fill:#455a64"></path><g style="opacity:0.6000000000000001"><path d="M168.59,432.12a1.82,1.82,0,0,0-2,1.39,1.75,1.75,0,0,0,1.36,2,1.93,1.93,0,0,0,2.11-1.48,1.82,1.82,0,0,0-1.65-1.91" style="fill:#fff"></path></g><g style="opacity:0.6000000000000001"><path d="M155.79,442.56l1.44-3.31,39.41,17.35a3.08,3.08,0,0,1,.62,2.87Z" style="fill:#fff"></path></g><path d="M181.15,439.55c-.09.2-1.13-.15-2.39.05s-2.15.81-2.3.65.66-1.17,2.19-1.4S181.28,439.39,181.15,439.55Z" style="fill:#263238"></path><path d="M184.64,443.21c0,.22-1,.17-2.1.71s-1.64,1.35-1.83,1.25.18-1.27,1.49-1.92S184.72,443,184.64,443.21Z" style="fill:#263238"></path><path d="M184.8,449.4c-.2,0,0-1.15,1-2s2.11-.89,2.13-.68-.83.53-1.63,1.25S185,449.47,184.8,449.4Z" style="fill:#263238"></path><path d="M182.92,434.59c-.16.15-.95-.53-2.11-.95s-2.19-.46-2.22-.68,1.13-.55,2.49,0S183.09,434.48,182.92,434.59Z" style="fill:#263238"></path><g style="opacity:0.30000000000000004"><polygon points="188.46 422.91 186.67 426.59 166.73 417.53 168.2 414.15 188.46 422.91"></polygon></g><path d="M184.87,430.39a4.18,4.18,0,0,1-2-.92,9.87,9.87,0,0,1-1.85-1.6,10.73,10.73,0,0,1-.89-1.14,2.74,2.74,0,0,1-.4-.75,1,1,0,0,1,.37-1.1,1.22,1.22,0,0,1,1.08-.07,2.77,2.77,0,0,1,.72.45,8.53,8.53,0,0,1,1.07,1,7.71,7.71,0,0,1,1.33,2.07,3.78,3.78,0,0,1,.47,2.19c-.12,0-.3-.8-.94-1.95a9.35,9.35,0,0,0-1.37-1.83,7.87,7.87,0,0,0-1-.88c-.38-.31-.75-.47-.94-.33s-.09.08-.06.25a2.18,2.18,0,0,0,.3.55,12,12,0,0,0,.8,1.1,13.9,13.9,0,0,0,1.64,1.63C184.18,429.89,184.93,430.28,184.87,430.39Z" style="fill:#263238"></path><path d="M184.49,430.56a3.55,3.55,0,0,1,.33-2.21,7.3,7.3,0,0,1,1.27-2.11,8,8,0,0,1,1.07-1,1.88,1.88,0,0,1,1.76-.45,1,1,0,0,1,.6,1,3.47,3.47,0,0,1-.12.84,4.88,4.88,0,0,1-.61,1.37,5,5,0,0,1-1.81,1.72,2.86,2.86,0,0,1-2.18.5,19.45,19.45,0,0,0,1.9-1,5.16,5.16,0,0,0,1.49-1.63,4.58,4.58,0,0,0,.49-1.2c.13-.46.12-.88-.06-.91a1.27,1.27,0,0,0-1,.36,7.15,7.15,0,0,0-1,.88,8.31,8.31,0,0,0-1.3,1.86C184.73,429.74,184.61,430.58,184.49,430.56Z" style="fill:#263238"></path><path d="M273.9,428.35,270.07,451s21.93,9.83,21.63,14.09l-44.37-4.18,4.51-35.53Z" style="fill:#455a64"></path><g style="opacity:0.6000000000000001"><path d="M256.67,447.27a1.82,1.82,0,0,0-1.52,1.9,1.74,1.74,0,0,0,1.86,1.52,1.93,1.93,0,0,0,1.6-2,1.81,1.81,0,0,0-2.11-1.36" style="fill:#fff"></path></g><g style="opacity:0.6000000000000001"><path d="M247.33,460.9l.46-3.58,42.7,5.53a3.09,3.09,0,0,1,1.41,2.57Z" style="fill:#fff"></path></g><path d="M270.82,450.86c0,.22-1.13.17-2.28.72s-1.84,1.39-2,1.28.3-1.32,1.71-2S270.89,450.67,270.82,450.86Z" style="fill:#263238"></path><path d="M275.2,453.39c0,.21-1,.46-1.81,1.27s-1.2,1.76-1.41,1.72-.19-1.28.89-2.27S275.22,453.18,275.2,453.39Z" style="fill:#263238"></path><path d="M277.1,459.28c-.2,0-.36-1.09.35-2.2s1.78-1.45,1.85-1.26-.64.74-1.21,1.66S277.32,459.29,277.1,459.28Z" style="fill:#263238"></path><path d="M271.12,445.6c-.12.19-1.07-.24-2.3-.32s-2.23.18-2.32,0,.93-.85,2.38-.73S271.25,445.45,271.12,445.6Z" style="fill:#263238"></path><g style="opacity:0.30000000000000004"><polygon points="273.13 432.83 272.46 436.87 250.77 433.8 251.23 430.14 273.13 432.83"></polygon></g><path d="M271.8,441a4.19,4.19,0,0,1-2.21-.3,10.4,10.4,0,0,1-2.22-1,10.74,10.74,0,0,1-1.18-.84,2.9,2.9,0,0,1-.6-.61,1,1,0,0,1,.05-1.16,1.24,1.24,0,0,1,1-.37,2.89,2.89,0,0,1,.81.22,8.08,8.08,0,0,1,3.18,2.27c.9,1.08,1.14,1.93,1.06,2s-.52-.69-1.46-1.61a8.63,8.63,0,0,0-1.82-1.37,8.53,8.53,0,0,0-1.22-.56c-.45-.19-.85-.24-1-.05s-.06.11,0,.26a2.59,2.59,0,0,0,.44.44,11,11,0,0,0,1.08.82,11.84,11.84,0,0,0,2,1.1A14,14,0,0,1,271.8,441Z" style="fill:#263238"></path><path d="M271.48,441.29a3.57,3.57,0,0,1-.3-2.21,7.23,7.23,0,0,1,1.36-3.65,1.82,1.82,0,0,1,1.56-.93,1.06,1.06,0,0,1,.85.74,3.27,3.27,0,0,1,.12.84,5.16,5.16,0,0,1-.2,1.49,5.08,5.08,0,0,1-1.25,2.16c-1,1-1.94,1.17-1.95,1.09s.75-.43,1.55-1.45a5.17,5.17,0,0,0,1-2,5,5,0,0,0,.12-1.29c0-.47-.13-.88-.31-.85s-.64.27-.87.62a8.14,8.14,0,0,0-.71,1.13,8.23,8.23,0,0,0-.72,2.15C271.48,440.44,271.6,441.27,271.48,441.29Z" style="fill:#263238"></path><path d="M253.29,275.13S287.5,334,290.07,344a41.55,41.55,0,0,1,1.07,17.35c-.47,3.44-13.93,81.94-13.93,81.94s-30.28-2.56-30-3.59c.49-1.63,12.25-77.81,10.55-81s-29.38-36.87-34.47-42.94-19.1-18.53-20.85-27.74c-1.69-9,6.83-28.2,6.83-28.2Z" style="fill:#263238"></path><polygon points="243.7 302.61 221.93 363.15 189.33 433.95 161.82 421.13 164.94 413.32 192 352.62 203.03 317.42 211.36 279.04 243.7 302.61" style="fill:#263238"></polygon><path d="M247.25,439.65a1.69,1.69,0,0,1,0-.37c0-.26.08-.61.14-1.06.14-1,.34-2.32.59-4.07.55-3.56,1.33-8.68,2.29-15,.49-3.18,1-6.67,1.61-10.41q.43-2.82.91-5.82t.78-6.2c1.07-8.5,2.25-17.88,3.5-27.77v0c.07-1.53.14-3.18.21-4.84.08-1.86.16-3.71.23-5.44l.06.17-31.4-39.25-9.36-11.79-2.51-3.21-.65-.84a2,2,0,0,1-.2-.29s.09.08.24.26l.68.81,2.59,3.15,9.49,11.69L258,358.52l.07.08v.09c-.07,1.73-.15,3.58-.23,5.45-.07,1.65-.14,3.3-.21,4.83h0v0c-1.27,9.89-2.47,19.26-3.56,27.76q-.41,3.19-.8,6.2l-.93,5.82c-.6,3.74-1.16,7.23-1.68,10.4l-2.44,15c-.3,1.74-.53,3.1-.69,4.06-.08.44-.14.79-.19,1.05A2.64,2.64,0,0,1,247.25,439.65Z" style="fill:#455a64"></path><path d="M271.05,352.62c.05.15-3.06,1.1-6.6,2.9s-6.15,3.72-6.25,3.59a7.58,7.58,0,0,1,1.62-1.38,31.12,31.12,0,0,1,4.4-2.67,31.57,31.57,0,0,1,4.75-1.95A7.39,7.39,0,0,1,271.05,352.62Z" style="fill:#455a64"></path><path d="M272.23,355.75c0,.15-3.11.79-6.91,1.83s-6.84,2.06-6.89,1.91a8.19,8.19,0,0,1,1.92-.87c1.21-.46,2.92-1,4.83-1.55s3.68-.88,5-1.1A7.5,7.5,0,0,1,272.23,355.75Z" style="fill:#455a64"></path><path d="M278.41,436.2c0,.14-6.79-.45-15.14-1.34s-15.1-1.71-15.08-1.85,6.79.46,15.14,1.34S278.43,436.06,278.41,436.2Z" style="fill:#455a64"></path><path d="M192.36,427.38a4.68,4.68,0,0,1-1.1-.51l-2.93-1.5c-2.48-1.25-6-2.87-9.83-4.6s-7.4-3.28-9.92-4.47c-1.26-.59-2.27-1.09-3-1.45a5.7,5.7,0,0,1-1.05-.6,5.72,5.72,0,0,1,1.13.42l3,1.29c2.56,1.1,6.1,2.6,10,4.33s7.34,3.42,9.79,4.76c1.22.66,2.2,1.23,2.86,1.65A5.52,5.52,0,0,1,192.36,427.38Z" style="fill:#455a64"></path><path d="M249.43,133.6a10.33,10.33,0,0,0-2.85,5.34c-.47,2-.11,6.28,3.33,7.33-2.3,5.39.28,10.43,6.27,11.9s15.35-7.12,21.45-8l17.15-.32c1.49,0,2.5-1.56,2.83-3s.32-3.06,1.17-4.29c1.15-1.69,3.56-2.16,4.75-3.83,1.35-1.9.62-4.55-.46-6.62s-2.51-4.13-2.44-6.46c.06-2.14,1.41-4.24.83-6.31-.7-2.54-3.91-3.62-4.93-6-.49-1.18-.4-2.54-.88-3.72-.82-2-3.1-3-5.26-3.33s-4.37,0-6.51-.38c-2.94-.5-5.7-2.16-8.68-2-3.29.18-5.82,2.44-8.45,4.59l-3.34,2.41a11.56,11.56,0,0,1-2.07,1,21.28,21.28,0,0,0-3.8,1.3,5.28,5.28,0,0,0-1.44,7.47,5.63,5.63,0,0,0-5,4.48s-.94,2.6.47,4.2A3.77,3.77,0,0,0,249.43,133.6Z" style="fill:#263238"></path><path d="M258.88,141.69a76.18,76.18,0,0,1-.19-13.25A26.66,26.66,0,0,1,262.82,116c.37-.56,3.31-4.18,3.94-4,.45.16-1.67,3.69-1.54,4.15a22.72,22.72,0,0,1-.66,13.49,59.84,59.84,0,0,1-5.68,12" style="fill:#263238"></path><path d="M262.22,187.24c-9.22-3.52-8.47-24.54-8.47-24.54l8.72-37.51c2.28-10.85,10.5-18.57,21.29-16l1,.29a19.82,19.82,0,0,1,13.65,23.17c-2,9.4-4.4,19.76-5.94,24.66-3.21,10.15-13.88,8.65-13.88,8.65s-.69,2.84-1.31,5.84c-2.29,11.07-5.22,15.81-7.83,14.92Z" style="fill:#e49384"></path><path d="M278.57,166a25.7,25.7,0,0,1-12.08-7.93s1,8.39,11.44,10.55Z" style="fill:#a86b62"></path><path d="M292.2,140.6a1.52,1.52,0,0,1-1.84,1,1.46,1.46,0,0,1-1.11-1.77,1.53,1.53,0,0,1,1.85-1A1.45,1.45,0,0,1,292.2,140.6Z" style="fill:#263238"></path><path d="M294.94,136.24c-.24.14-1.1-1-2.66-1.48s-2.95,0-3.07-.27.23-.4.84-.61a4.13,4.13,0,0,1,2.53,0,4,4,0,0,1,2,1.42C295,135.79,295.05,136.19,294.94,136.24Z" style="fill:#263238"></path><path d="M278.46,137.16a1.52,1.52,0,0,1-1.85,1,1.46,1.46,0,0,1-1.1-1.76,1.52,1.52,0,0,1,1.85-1.05A1.45,1.45,0,0,1,278.46,137.16Z" style="fill:#263238"></path><path d="M279.41,132.24c-.24.14-1.09-1-2.66-1.48s-2.95,0-3.06-.28.22-.39.84-.6a4.1,4.1,0,0,1,2.52,0,4,4,0,0,1,2.05,1.42C279.46,131.79,279.52,132.19,279.41,132.24Z" style="fill:#263238"></path><path d="M281.39,146a11.22,11.22,0,0,1,2.68.31c.41.08.82.11,1-.14a2.15,2.15,0,0,0,.09-1.26c-.09-1.08-.17-2.22-.26-3.4-.34-4.84-.45-8.76-.25-8.77s.62,3.89.95,8.72c.07,1.19.14,2.33.21,3.41a2.41,2.41,0,0,1-.27,1.63,1,1,0,0,1-.83.39,3.31,3.31,0,0,1-.71-.11A11,11,0,0,1,281.39,146Z" style="fill:#263238"></path><path d="M273.48,125c.18-.44,1.8-.17,3.73-.32s3.49-.63,3.73-.22c.11.2-.18.61-.82,1a6.09,6.09,0,0,1-2.8.86,6.27,6.27,0,0,1-2.89-.45C273.74,125.56,273.4,125.2,273.48,125Z" style="fill:#263238"></path><path d="M291.8,127c.46-.1,1.08.91,2.11,1.79s2.09,1.4,2,1.87c0,.22-.4.39-1,.34a3.82,3.82,0,0,1-2.13-1,3.91,3.91,0,0,1-1.22-2C291.46,127.41,291.59,127,291.8,127Z" style="fill:#263238"></path><path d="M261,133c-.15-.13-6.37-4.19-8.26,2.85s5.57,7.47,5.64,7.27S261,133,261,133Z" style="fill:#e49384"></path><path d="M257,139.87s-.14,0-.38.09a1.28,1.28,0,0,1-.92-.22,3.14,3.14,0,0,1-.67-3.1,4.16,4.16,0,0,1,.81-1.66,1.47,1.47,0,0,1,1.17-.7.66.66,0,0,1,.64.53c0,.23,0,.35,0,.38s.18-.08.2-.39a.84.84,0,0,0-.15-.51,1,1,0,0,0-.63-.36,1.78,1.78,0,0,0-1.58.75,4.35,4.35,0,0,0-.94,1.84c-.34,1.43,0,2.95,1,3.52a1.36,1.36,0,0,0,1.17.11C256.9,140,257,139.89,257,139.87Z" style="fill:#a86b62"></path><path d="M296.85,119.82c1.3-.34-1.17-4.91-3.64-6.91-3.74-3-9.91-5.87-14.1-5.77-5.05.12-9.56,1.45-13,5.12a28.64,28.64,0,0,0-6.76,13.35,8.63,8.63,0,0,0-.12,4.56c.58,1.82,2.21,3.29,1.58,5.41a3,3,0,0,0,.17,2.35c.94,1.7,2.85.82,3.91-.29,2.26-2.36,3.28-5.61,4.24-8.74a21.33,21.33,0,0,0,1.28-6.82c0-1.26-.31-2.51-.28-3.78a4.41,4.41,0,0,1,1.41-3.39,5.42,5.42,0,0,1,.72-.43,7.6,7.6,0,0,1,7.65.5c3.61,2.43,9.85,6.27,12,5.38a11.35,11.35,0,0,0,4-2.38Z" style="fill:#263238"></path><path d="M279.73,106.28A16,16,0,0,1,291.46,110a8.34,8.34,0,0,1,3.05,5.78c0,2.24-1.51,4.58-3.73,4.88l-.16,0c-3.27.24-5.12-.67-7.85-2.48-2.3-1.53-4.14-3.67-6.44-5.18a14.81,14.81,0,0,0-8.33-2.41A24.13,24.13,0,0,1,279.73,106.28Z" style="fill:#263238"></path><path d="M264.57,110c.05.07.78-.47,2.13-1a10.91,10.91,0,0,1,2.42-.62,6.84,6.84,0,0,1,3,.22,9.93,9.93,0,0,1,4.44,3.24c.88,1.14,1.21,2,1.29,2a1.89,1.89,0,0,0-.18-.62,7.92,7.92,0,0,0-.84-1.53,9.33,9.33,0,0,0-4.55-3.5,6.84,6.84,0,0,0-3.21-.2,9.12,9.12,0,0,0-2.5.75A5.41,5.41,0,0,0,264.57,110Z" style="fill:#455a64"></path><path d="M288,107.61a19.71,19.71,0,0,0,1.7,1.17,15.83,15.83,0,0,1,5.79,7.75,19.19,19.19,0,0,0,.64,2,5.71,5.71,0,0,0-.31-2.06,13.83,13.83,0,0,0-5.93-7.94A5.59,5.59,0,0,0,288,107.61Z" style="fill:#455a64"></path><path d="M280.33,149.1c-.27-.43-1-1.06-1.46-1h0a1.49,1.49,0,0,0-1.08.37,2.64,2.64,0,0,0-.78,1.69,2.25,2.25,0,0,0,.5,1.9,1.69,1.69,0,0,0,1.94.18,2.37,2.37,0,0,0,1.11-1.68A2.12,2.12,0,0,0,280.33,149.1Z" style="fill:#a86b62"></path><path d="M279,152.59s-.54.33-1.36-.1A2.65,2.65,0,0,1,278,148a1.86,1.86,0,0,1,1.57,0,1.48,1.48,0,0,1,.76.72c.1.23.09.37.06.37s-.23-.51-1-.75a1.51,1.51,0,0,0-1.22.09,2.16,2.16,0,0,0-1,1.17,2.22,2.22,0,0,0,.68,2.59A3.36,3.36,0,0,0,279,152.59Z" style="fill:#263238"></path><path d="M273.94,121.11c-.15-.86-.31-1.73-.46-2.59h0a17.46,17.46,0,0,0-.59,1.77,1.68,1.68,0,0,0,.06,1.21c.21.35.85.42,1,0A.85.85,0,0,0,273.94,121.11Z" style="fill:#fafafa"></path><path d="M272.34,123.18c-.15-.87-.31-1.73-.46-2.6h0c-.15.49-.5,1.37-.59,1.77a1.67,1.67,0,0,0,.06,1.21c.21.35.85.42,1,0A.81.81,0,0,0,272.34,123.18Z" style="fill:#fafafa"></path><polygon points="315.52 172.61 314.93 173.16 314.34 172.61 314.34 168.34 314.93 167.73 315.52 168.34 315.52 172.61" style="fill:#263238"></polygon><polygon points="309.62 172.61 309.03 173.16 308.44 172.61 308.44 168.34 309.03 167.73 309.62 168.34 309.62 172.61" style="fill:#263238"></polygon><polygon points="315.62 177.88 315.03 178.39 314.44 177.88 314.44 173.93 315.03 173.37 315.62 173.93 315.62 177.88" style="fill:#263238"></polygon><polygon points="326.05 172.4 325.48 173 324.9 172.4 324.9 167.78 325.48 167.12 326.05 167.78 326.05 172.4" style="fill:#263238"></polygon><polygon points="326.05 178.6 325.48 179.2 324.9 178.6 324.9 173.99 325.48 173.33 326.05 173.99 326.05 178.6" style="fill:#263238"></polygon><polygon points="330.64 172.53 330.05 173.09 329.46 172.53 329.46 168.24 330.05 167.63 330.64 168.24 330.64 172.53" style="fill:#263238"></polygon><polygon points="336.55 178.07 335.95 178.63 335.36 178.07 335.36 173.78 335.95 173.16 336.55 173.78 336.55 178.07" style="fill:#263238"></polygon><polygon points="314.08 172.75 314.63 173.32 314.08 173.9 309.81 173.9 309.2 173.32 309.81 172.75 314.08 172.75" style="fill:#263238"></polygon><polygon points="314.27 178.08 314.83 178.66 314.27 179.23 310 179.23 309.39 178.66 310 178.08 314.27 178.08" style="fill:#263238"></polygon><polygon points="314.08 166.97 314.63 167.55 314.08 168.12 309.81 168.12 309.2 167.55 309.81 166.97 314.08 166.97" style="fill:#263238"></polygon><polygon points="335.22 166.97 335.78 167.55 335.22 168.13 330.93 168.13 330.32 167.55 330.93 166.97 335.22 166.97" style="fill:#263238"></polygon><polygon points="335.22 172.52 335.78 173.09 335.22 173.67 330.93 173.67 330.32 173.09 330.93 172.52 335.22 172.52" style="fill:#263238"></polygon><polygon points="335.22 178.18 335.78 178.76 335.22 179.34 330.93 179.34 330.32 178.76 330.93 178.18 335.22 178.18" style="fill:#263238"></polygon><path d="M321.18,171.25a.92.92,0,1,1-.92-.91A.92.92,0,0,1,321.18,171.25Z" style="fill:#263238"></path><path d="M321.18,175.48a.92.92,0,0,1-1.84,0,.92.92,0,1,1,1.84,0Z" style="fill:#263238"></path><path d="M340.81,183.08a5.15,5.15,0,0,0,1.22-.27,3.53,3.53,0,0,0,2.17-2.59,21.32,21.32,0,0,0,.05-2.58c0-1,0-2,0-3.1,0-2.23,0-4.77,0-7.56a3.38,3.38,0,0,0-2.19-3.23,5.82,5.82,0,0,0-2.24-.22h-2.42l-10.52,0-24.09,0a3.28,3.28,0,0,0-2.57,1.23,3.23,3.23,0,0,0-.64,1.3,6.12,6.12,0,0,0-.09,1.5q0,3.12,0,6.15c0,2,0,4,0,5.92a3.33,3.33,0,0,0,1.14,2.34,3.41,3.41,0,0,0,2.44.81l19.68,0L336,183l3.61.05.93,0a1.25,1.25,0,0,1,.32,0,1.25,1.25,0,0,1-.32,0l-.93,0-3.61.05-13.26.08-19.68.06a3.87,3.87,0,0,1-2.76-.92,3.83,3.83,0,0,1-1.32-2.69c0-1.94,0-3.92,0-5.94v-6.15A7,7,0,0,1,299,166a4,4,0,0,1,.74-1.51,3.87,3.87,0,0,1,3-1.43l24.09,0,10.52,0h2.42a6.23,6.23,0,0,1,2.38.25,3.78,3.78,0,0,1,2.42,3.61c0,2.79,0,5.33,0,7.56,0,1.11,0,2.14,0,3.1a21.75,21.75,0,0,1-.1,2.62,3.58,3.58,0,0,1-2.34,2.64,2.86,2.86,0,0,1-.92.19Z" style="fill:#263238"></path><path d="M313.84,204.75c-.22.21-3-4-6.28-9.15-1.63-2.61-3.08-5-4.1-6.72A20.78,20.78,0,0,1,301.9,186a19.83,19.83,0,0,1,1.87,2.67c1.1,1.68,2.6,4,4.23,6.63l4.15,6.67C312.87,203.18,313.37,204,313.84,204.75Z" style="fill:#263238"></path><path d="M336.55,195.39a35.71,35.71,0,0,1,2.72-5.5,36.6,36.6,0,0,1,3.18-5.26,35.54,35.54,0,0,1-2.72,5.51A36.81,36.81,0,0,1,336.55,195.39Z" style="fill:#263238"></path><path d="M275.33,184c.38.56,15.26,21.49,15.26,21.49l-19.64,20-4.67-10.46Z" style="fill:#92E3A9"></path><g style="opacity:0.30000000000000004"><path d="M270.57,224.88a38.49,38.49,0,0,0,4.55-37.28Z"></path></g><path d="M255.21,154.33l-4.14,4s-12.94,2-14.26,2.87c-2.93,1.84-26.94,54.85-26.94,54.85l-8.6,38.08a4.5,4.5,0,0,0,3,5.26l48.11,16.09a4.88,4.88,0,0,0,4.85-2.56c1.4-2.47,11.19-39.5,14.94-54,1-3.86,2.25-12.38,2.21-12.13l1.57-23.92.38-3.4,2.14.22-.48-3.34-1.09-2.66L274,179.51l-3-8.11Z" style="fill:#92E3A9"></path><g style="opacity:0.30000000000000004"><path d="M216.1,212.59c-2.92,2.58-5.79,5.37-7.52,8.86-1.92,3.86-2.31,8.28-2.55,12.58a242.62,242.62,0,0,0,.15,29.54l1.7,6.93c5.48-12.22,5.74-26,7.7-39.25.57-3.83,1.32-7.72,3.29-11.05,2.12-3.59,5.49-6.24,8.55-9.08A72.16,72.16,0,0,0,239.85,196,130.35,130.35,0,0,0,216.1,212.59Z"></path></g><path d="M273.87,179.79a2.1,2.1,0,0,1-.34-.53l-.85-1.56-3-5.67.37,0c-1.2,1.6-3,3.05-4.42,4.9l-.18.23-.2-.2c-.94-1-1.89-2-2.84-3s-1.71-2.08-2.48-3.09L257.76,168l-3.71-5-2.47-3.38a8.47,8.47,0,0,1-.85-1.28,8.29,8.29,0,0,1,1,1.16l2.6,3.28,3.81,4.9,2.23,2.91c.78,1,1.55,2.06,2.46,3s1.89,2.06,2.81,3l-.38,0c1.53-1.92,3.29-3.33,4.48-4.86l.21-.28.15.31,2.79,5.75c.3.64.54,1.18.75,1.62A2.57,2.57,0,0,1,273.87,179.79Z" style="fill:#263238"></path><path d="M245.49,162s-9.85-5.84-24.67,9.91c-13,13.81-18.56,20-18.56,20l21.51,20.67s22.5-22.33,26.28-27.77S253.74,169.29,245.49,162Z" style="fill:#92E3A9"></path><path d="M250.05,184.75a3.71,3.71,0,0,1-.41.63c-.28.41-.73,1-1.33,1.71-1.2,1.45-3,3.51-5.33,6-4.65,5-11.31,11.89-19,19.6l-.18.17-.18-.17-6.79-6.52L202.1,192l-.17-.16.16-.17c5.5-5.87,10.16-10.82,13.47-14.35l3.85-4,1-1.06a2.41,2.41,0,0,1,.38-.35,2.26,2.26,0,0,1-.32.4l-1,1.11-3.75,4.13c-3.28,3.56-7.89,8.56-13.33,14.48v-.33c4.42,4.25,9.44,9,14.74,14.13l6.78,6.53h-.36c7.74-7.69,14.44-14.51,19.14-19.46,2.36-2.47,4.2-4.5,5.44-5.91.62-.71,1.09-1.26,1.39-1.65A5.36,5.36,0,0,1,250.05,184.75Z" style="fill:#263238"></path><path d="M252.21,180.28a24.9,24.9,0,0,0,.65-4.1,14.26,14.26,0,0,0-11.07-14.63,25.24,25.24,0,0,0-4.12-.51,4.5,4.5,0,0,1,1.12-.13,12.12,12.12,0,0,1,3.08.28,14.12,14.12,0,0,1,11.35,15,13,13,0,0,1-.57,3A3.54,3.54,0,0,1,252.21,180.28Z" style="fill:#263238"></path><path d="M269.92,171.93l-4.45,4.88-13.12-16.28c2.72,4.41,11.16,18.13,13.48,19.26l3.94-5.09,2.62,2.33Z" style="opacity:0.30000000000000004"></path><path d="M275.87,183a13.5,13.5,0,0,1,0,1.77c-.05,1.22-.11,2.84-.18,4.8-.2,4.06-.49,9.66-1.16,15.82A116,116,0,0,1,271.82,221c-.51,2-1,3.56-1.33,4.63a10.14,10.14,0,0,1-.6,1.66,11.74,11.74,0,0,1,.41-1.72c.31-1.09.7-2.68,1.16-4.65A139.64,139.64,0,0,0,274,205.35c.67-6.15,1-11.74,1.31-15.79.14-2,.26-3.57.35-4.79A10.38,10.38,0,0,1,275.87,183Z" style="fill:#263238"></path><path d="M251.22,195.82s-.16.34-.46.92-.78,1.45-1.33,2.49l-4.77,8.8,0-.18c1,2.92,2.13,6.24,3.36,9.81l-.25-.17,8.74-.24,1.93-.05-.22.13c2.48-4.6,4.81-8.91,6.82-12.65l.08.3-10-6.56-2.85-1.88-.76-.52a1.72,1.72,0,0,1-.26-.2,11.28,11.28,0,0,1,1,.58l2.87,1.76,10.3,6.44.18.11-.1.19c-2,3.74-4.3,8.06-6.76,12.68l-.08.13h-.15l-1.92.05-8.74.22h-.19l-.06-.18c-1.2-3.58-2.31-6.91-3.28-9.83l0-.09,0-.08,5-8.81,1.39-2.39A6.5,6.5,0,0,1,251.22,195.82Z" style="fill:#263238"></path><path d="M263.28,208.48A69.49,69.49,0,0,1,256,204.4a64.65,64.65,0,0,1-7-4.54,69.75,69.75,0,0,1,7.29,4.09A67.45,67.45,0,0,1,263.28,208.48Z" style="fill:#263238"></path><path d="M278,179.17c-.06,0-.24-.38-.5-1s-.58-1.66-1-2.56l.45,0-.24.45a12.33,12.33,0,0,1-2.63,3.66c-.12-.09,1-1.74,2.17-3.91l.24-.44.22-.43.22.4a9.16,9.16,0,0,1,.59,1.52c.14.46.25.88.34,1.22C278,178.72,278.1,179.15,278,179.17Z" style="fill:#263238"></path><path d="M172.46,313.5s14.25-24.7,21.59-24.91,16.6,1.61,17.19,6.51a50.32,50.32,0,0,1-1.41,18.4c-1.82,6.61-6.52,15.87-6.52,15.87l-6.58-3.82s11.72-25.71,11.3-30.45-12.43-6.38-15.63-2.29-14.85,23.63-14.85,23.63Z" style="fill:#455a64"></path><path d="M205.31,195.11s-12.1,14-13.91,18.08.69,39.05,2.34,57.75h13.68l5.18-52.13,8.53-8.46Z" style="fill:#e49384"></path><path d="M132.24,339.46c5-10.56,16.45-33.7,21.48-43.87a5.76,5.76,0,0,1,7.51-2.71l63.47,28.4a5.76,5.76,0,0,1,3,7.43L209.57,373.2a5.75,5.75,0,0,1-7.63,3.11l-66.8-29.09A5.76,5.76,0,0,1,132.24,339.46Z" style="fill:#455a64"></path><polygon points="180.99 321.09 160.14 310.83 165.12 299.79 186.29 309.34 180.99 321.09" style="fill:#f5f5f5"></polygon><path d="M182.33,312a73,73,0,0,1-7.93-3.47,72.41,72.41,0,0,1-7.7-3.95,73.35,73.35,0,0,1,7.92,3.47A72,72,0,0,1,182.33,312Z" style="fill:#263238"></path><path d="M181.14,314.9a72.35,72.35,0,0,1-7.92-3.48,74.64,74.64,0,0,1-7.7-3.94,71,71,0,0,1,7.92,3.47A71.22,71.22,0,0,1,181.14,314.9Z" style="fill:#263238"></path><path d="M180,317.81a71,71,0,0,1-7.92-3.47,70.07,70.07,0,0,1-7.7-3.95,73.32,73.32,0,0,1,7.92,3.48A73.57,73.57,0,0,1,180,317.81Z" style="fill:#263238"></path><polygon points="198.96 329.38 172.65 317.24 178.87 303.45 205.28 315.37 198.96 329.38" style="fill:#e0e0e0"></polygon><path d="M200.33,318.67c-.06.13-4.48-1.84-9.86-4.4s-9.69-4.73-9.63-4.86,4.47,1.84,9.86,4.39S200.39,318.54,200.33,318.67Z" style="fill:#263238"></path><path d="M198.85,322.3c-.06.13-4.47-1.83-9.85-4.39s-9.7-4.73-9.64-4.86,4.48,1.83,9.86,4.39S198.92,322.17,198.85,322.3Z" style="fill:#263238"></path><path d="M197.38,325.94c-.06.13-4.48-1.84-9.86-4.39s-9.69-4.74-9.63-4.87,4.47,1.84,9.86,4.4S197.44,325.81,197.38,325.94Z" style="fill:#263238"></path><path d="M218.41,337.76s-.06.16-.2.48-.35.81-.62,1.42l-2.43,5.48-9.06,20.25-.73,1.62a3.51,3.51,0,0,1-1.11,1.52,3.22,3.22,0,0,1-1.85.63,4.13,4.13,0,0,1-1.88-.52l-7.27-3.22-16-7.09-17.72-7.86-9.37-4.15-4.79-2.13-1.21-.54a6.24,6.24,0,0,1-1.23-.63,3.22,3.22,0,0,1-1.28-2.49,3.14,3.14,0,0,1,.21-1.22c.16-.39.32-.71.48-1.06.33-.69.65-1.38,1-2.07l1.9-4.09c1.27-2.71,2.52-5.39,3.74-8,2.46-5.27,4.84-10.36,7.1-15.22l.11-.24.23.12c17.79,9.17,33.34,16.38,44.42,21.31,5.54,2.47,10,4.38,13,5.69l3.49,1.51.88.39.29.13a1.29,1.29,0,0,1-.32-.11l-.92-.36-3.48-1.41c-3.05-1.26-7.49-3.13-13-5.56-11.12-4.86-26.71-12-44.53-21.15l.34-.12c-2.26,4.87-4.63,10-7.08,15.23-1.23,2.64-2.47,5.32-3.74,8l-1.9,4.09-1,2.07a4.43,4.43,0,0,0-.65,2,2.7,2.7,0,0,0,1.07,2.09,5.44,5.44,0,0,0,1.13.58l1.21.53,4.79,2.13L159.7,350l17.71,7.88,16,7.14,7.26,3.24a3.6,3.6,0,0,0,1.72.49,2.79,2.79,0,0,0,1.62-.54,3,3,0,0,0,1-1.36c.24-.54.49-1.08.73-1.61l9.2-20.07c1.09-2.37,1.95-4.21,2.53-5.49l.67-1.43Z" style="fill:#263238"></path><path d="M187.69,358s.4.16,1.18.33a6.07,6.07,0,0,0,3.43-.31,6.33,6.33,0,0,0,3.59-3.94c.88-2,1.89-4.27,3-6.77l1.76-3.93a6.16,6.16,0,0,0,.58-4.39,5.77,5.77,0,0,0-2.9-3.67c-1.53-.73-3.17-1.44-4.82-2.19L172,323.39a5.76,5.76,0,0,0-5.65.53,5.55,5.55,0,0,0-1.87,2.18l-1.24,2.71q-1.22,2.7-2.4,5.3l-1.16,2.57a22.77,22.77,0,0,0-1.06,2.5,5.78,5.78,0,0,0,2.58,6.52c.69.39,1.48.7,2.2,1.05l8.18,3.72,11.82,5.42,3.2,1.5.83.4a1.27,1.27,0,0,1,.27.16l-.29-.11-.85-.35-3.25-1.41-11.88-5.28-8.2-3.66c-.74-.35-1.49-.63-2.25-1.06a6,6,0,0,1-1.92-1.78,6.18,6.18,0,0,1-.9-5.25,23.51,23.51,0,0,1,1.07-2.57l1.16-2.58,2.38-5.3c.41-.9.83-1.81,1.24-2.73a6.27,6.27,0,0,1,8.2-3l21.52,9.74c1.65.76,3.26,1.45,4.83,2.21a6.17,6.17,0,0,1,3.1,4,6.46,6.46,0,0,1-.63,4.66l-1.79,3.92-3.08,6.74a15.8,15.8,0,0,1-.7,1.43,6.07,6.07,0,0,1-6.6,2.81A4.67,4.67,0,0,1,187.69,358Z" style="fill:#263238"></path><path d="M181.12,321.23c.29.13,24.13-8.39,24.13-8.39l8.56,23Z" style="fill:#fafafa"></path><path d="M207.09,332.87a63.68,63.68,0,0,1-3.76-7.12,62.93,62.93,0,0,1-3.28-7.35,61.68,61.68,0,0,1,3.75,7.12A61.28,61.28,0,0,1,207.09,332.87Z" style="fill:#263238"></path><path d="M201.58,330.57a68.92,68.92,0,0,1-5.25-10.79,68.92,68.92,0,0,1,5.25,10.79Z" style="fill:#263238"></path><path d="M195.88,327.88a13.92,13.92,0,0,1-1.87-3.25,13.27,13.27,0,0,1-1.39-3.47,13.69,13.69,0,0,1,1.86,3.25A13.53,13.53,0,0,1,195.88,327.88Z" style="fill:#263238"></path><path d="M190.35,325.52c-.13.06-.56-.55-1-1.37s-.62-1.54-.49-1.61.56.56,1,1.38S190.48,325.46,190.35,325.52Z" style="fill:#263238"></path><g style="opacity:0.30000000000000004"><path d="M142.71,342.68a111,111,0,0,0,58.2,25.79Z"></path></g><rect x="178.43" y="332.26" width="12.86" height="4.66" rx="1.9" transform="translate(153.98 -46.42) rotate(24.29)" style="fill:#e0e0e0"></rect><path d="M211.47,283.39a19.81,19.81,0,0,1,1.48,4.5c.17,1.64-1,7.95-1,7.95s-1.48.49-2.05-3.36a29.9,29.9,0,0,1-.45-5.62Z" style="fill:#e49384"></path><path d="M207.11,267.9l.57,5.56,3.86,10.1-2,11.58a5,5,0,0,1-1.8,3.13,1.76,1.76,0,0,1-1,.47c-.93,0-2.63-2.12-2.63-2.12s-2.49,1.29-3.68-.64c0,0-3,.18-3.87-1.66,0,0-2.11.56-2.94-.73s-2-7.64-2-7.64l2.6-18.05Z" style="fill:#e49384"></path><path d="M195.9,291.14c.14,0,.38.65.54,1.5s.17,1.56,0,1.59-.38-.65-.53-1.5S195.76,291.17,195.9,291.14Z" style="fill:#a86b62"></path><path d="M199.61,291.52a7.56,7.56,0,0,1,.42,2.26,8,8,0,0,1,.23,2.3,6.53,6.53,0,0,1-.65-4.56Z" style="fill:#a86b62"></path><path d="M203.75,292.51c.15,0,.13.92.18,2a6.14,6.14,0,0,1,0,2c-.14,0-.46-.86-.5-2A3.31,3.31,0,0,1,203.75,292.51Z" style="fill:#a86b62"></path><path d="M210.83,287.18a18.84,18.84,0,0,1-.45,4.45,19.61,19.61,0,0,1-1,4.36,18.87,18.87,0,0,1,.45-4.45A19.61,19.61,0,0,1,210.83,287.18Z" style="fill:#a86b62"></path><path d="M196,288.78c0,.06-.09.21-.36.32a1.55,1.55,0,0,1-1.15,0,1.62,1.62,0,0,1-.87-.75c-.13-.27-.12-.46-.06-.48s.45.51,1.11.74S196,288.65,196,288.78Z" style="fill:#a86b62"></path><path d="M200.23,290.11c0,.06-.12.21-.43.3a2,2,0,0,1-1.22-.05,2.06,2.06,0,0,1-1-.74c-.18-.27-.2-.47-.14-.5s.54.49,1.29.75S200.17,290,200.23,290.11Z" style="fill:#a86b62"></path><path d="M208.57,290.46c.06,0,.28.37-.13.82a2.48,2.48,0,0,1-1.86.57,3,3,0,0,1-1.79-.7c-.37-.32-.49-.62-.44-.65a5.94,5.94,0,0,0,2.26.83,2.83,2.83,0,0,0,1.59-.33C208.52,290.78,208.5,290.48,208.57,290.46Z" style="fill:#a86b62"></path></g><g id="freepik--speech-bubble--inject-2"><polygon points="188.31 86.29 204.37 71.32 203.91 93.42 222.24 93.76 211.51 109.79 232.04 124.33 205.56 121.01 203.43 141.14 186.41 126.56 166.38 140.48 171.04 119.78 149.51 116.39 166.76 103.78 154.54 89.66 173.67 90.46 175.26 72.12 188.31 86.29" style="fill:#fff"></polygon><path d="M188.32,86.29s-.3-.3-.87-.9l-2.53-2.71c-2.24-2.4-5.52-5.94-9.74-10.48l.2-.07c-.43,5.1-.95,11.29-1.55,18.34v.16h-.16l-19.13-.77.16-.32c3.79,4.38,7.9,9.12,12.24,14.11l.15.18-.19.14c-5.46,4-11.23,8.21-17.24,12.62l-.11-.42,21.54,3.37.26,0-.06.26c-1.48,6.59-3,13.57-4.65,20.71l-.39-.27,20-13.92.16-.11.16.13,4.51,3.86L203.6,141l-.43.17q1.1-10.27,2.13-20.13l0-.26.26,0,26.48,3.33-.17.43L211.39,110l-.18-.13.12-.18c3.8-5.67,7.38-11,10.74-16l.16.31-18.32-.36h-.18v-.17q.3-13,.5-22.1l.21.09-12,11.1-3.09,2.84-1,.94s.35-.35,1-1l3.07-2.9,11.85-11.15.22-.2v.3c-.11,6.09-.24,13.44-.4,22.1l-.17-.18,18.32.31h.37l-.21.31-10.7,16-.06-.3q9.72,6.86,20.54,14.52l.79.55-1-.11-26.49-3.31.29-.22q-1,9.84-2.12,20.13l-.05.49-.38-.32-12.51-10.71-4.51-3.87.32,0-20,13.91-.54.38.14-.64c1.61-7.14,3.18-14.12,4.67-20.71l.2.3-21.53-3.4-.56-.09.46-.33,17.26-12.59,0,.31L154.39,89.79l-.29-.34.45,0,19.13.82-.17.15c.63-7,1.18-13.24,1.64-18.33l0-.27.18.2L185,82.56c1.1,1.21,1.94,2.13,2.51,2.77Z" style="fill:#263238"></path><path d="M186.12,95.43l.76,12a2,2,0,0,0,1.83,1.82h0a2,2,0,0,0,2-1.73l1.33-12.05a1.53,1.53,0,0,0-1.54-1.7l-2.93,0A1.54,1.54,0,0,0,186.12,95.43Z" style="fill:#92E3A9"></path><path d="M191.74,116a2.93,2.93,0,1,1-1.85-3.7A2.92,2.92,0,0,1,191.74,116Z" style="fill:#92E3A9"></path></g></svg>